<svg xmlns="http://www.w3.org/2000/svg" width="120" height="120" fill="none"><g clip-path="url(#a)"><path fill="#D5A731" d="M105.188 63.516h11.296A3.516 3.516 0 0 0 120 60V26.11a3.516 3.516 0 0 0-3.516-3.516H86.109v-7.782C86.11 6.646 79.464 0 71.297 0c-8.168 0-14.813 6.645-14.813 14.813v7.78H26.11a3.516 3.516 0 0 0-3.515 3.516v30.375h-7.782C6.646 56.484 0 63.13 0 71.297c0 8.167 6.645 14.812 14.813 14.812h7.78v30.375A3.516 3.516 0 0 0 26.11 120H60a3.516 3.516 0 0 0 3.516-3.516v-11.296c0-4.291 3.49-7.782 7.78-7.782 4.291 0 7.782 3.491 7.782 7.782v11.296A3.516 3.516 0 0 0 82.594 120h33.89a3.516 3.516 0 0 0 3.516-3.516v-33.89a3.516 3.516 0 0 0-3.516-3.516h-11.296c-4.291 0-7.782-3.49-7.782-7.781 0-4.29 3.491-7.781 7.782-7.781Zm0 22.593h7.781v26.86h-26.86v-7.781c0-8.168-6.645-14.813-14.812-14.813-8.168 0-14.813 6.645-14.813 14.813v7.781H29.625V82.594a3.516 3.516 0 0 0-3.516-3.516H14.812c-4.29 0-7.78-3.49-7.78-7.781 0-4.29 3.49-7.781 7.78-7.781H26.11A3.516 3.516 0 0 0 29.625 60V29.625H60a3.516 3.516 0 0 0 3.516-3.516V14.812c0-4.29 3.49-7.78 7.78-7.78 4.291 0 7.782 3.49 7.782 7.78V26.11a3.516 3.516 0 0 0 3.516 3.516h30.375v26.86h-7.781c-8.168 0-14.813 6.644-14.813 14.812 0 8.167 6.645 14.812 14.813 14.812Z"/></g><defs><clipPath id="a"><path fill="#fff" d="M0 0h120v120H0z"/></clipPath></defs></svg>