<svg xmlns="http://www.w3.org/2000/svg" width="120" height="120" fill="none"><g stroke="#D5A731" stroke-miterlimit="10" stroke-width="7" clip-path="url(#a)"><path d="M60 116.484a7.09 7.09 0 1 0 0-14.179 7.09 7.09 0 0 0 0 14.179Zm0-65.859a7.09 7.09 0 1 0 0-14.18 7.09 7.09 0 0 0 0 14.18Zm0 32.93a7.09 7.09 0 1 0 0-14.18 7.09 7.09 0 0 0 0 14.18Zm0-65.86a7.09 7.09 0 1 0 0-14.18 7.09 7.09 0 0 0 0 14.18Zm-7.046 59.553L31.71 79.61M60 102.305v-18.75m-30.577 5.46L54.1 105.462m-1.146-62.71L31.71 40.39M60 17.695v18.75m-30.577-5.46L54.1 14.539m-36.444 38.43c7.81 0 14.14-6.331 14.14-14.14 0-7.81-6.33-14.141-14.14-14.141-7.81 0-14.14 6.33-14.14 14.14 0 7.81 6.33 14.14 14.14 14.14Zm0 42.343c7.81 0 14.14-6.33 14.14-14.14 0-7.81-6.33-14.14-14.14-14.14-7.81 0-14.14 6.33-14.14 14.14 0 7.81 6.33 14.14 14.14 14.14Zm84.688-21.172c7.809 0 14.14-6.33 14.14-14.14 0-7.81-6.331-14.14-14.14-14.14-7.81 0-14.14 6.33-14.14 14.14 0 7.81 6.33 14.14 14.14 14.14ZM17.656 52.969V67.03m46.957 36.982 28.53-33.28m-3.978-5.608-22.557 8.77m-1.995-57.908 28.53 33.28m-3.978 5.608-22.557-8.77m-11.906 25.65L28.224 48.221"/></g><defs><clipPath id="a"><path fill="#fff" d="M0 0h120v120H0z"/></clipPath></defs></svg>