<svg xmlns="http://www.w3.org/2000/svg" width="120" height="120" fill="none"><g clip-path="url(#a)"><mask id="b" width="120" height="120" x="0" y="0" maskUnits="userSpaceOnUse" style="mask-type:luminance"><path fill="#fff" d="M0 0h120v120H0V0Z"/></mask><g mask="url(#b)"><path stroke="#37871C" stroke-linecap="round" stroke-linejoin="round" stroke-miterlimit="10" stroke-width="7" d="M60 82.266h42.422c7.766 0 14.062-6.296 14.062-14.063V51.797c0-7.766-6.296-14.063-14.062-14.063H82.265m-22.265 0H17.578c-7.766 0-14.062 6.297-14.062 14.063v16.406c0 7.767 6.296 14.063 14.062 14.063h20.156"/><path stroke="#37871C" stroke-linecap="round" stroke-linejoin="round" stroke-miterlimit="10" stroke-width="7" d="M37.734 37.735V17.578c0-7.766 6.296-14.062 14.063-14.062h16.406c7.766 0 14.062 6.296 14.062 14.062V60h-44.53v42.422c0 7.766 6.295 14.062 14.062 14.062h16.406c7.766 0 14.062-6.296 14.062-14.062V82.266"/><path fill="#37871C" d="M51.797 17.578a3.516 3.516 0 1 1 0 7.032 3.516 3.516 0 0 1 0-7.032Zm16.406 84.844a3.516 3.516 0 1 1 0-7.031 3.516 3.516 0 0 1 0 7.031Z"/></g></g><defs><clipPath id="a"><path fill="#fff" d="M0 0h120v120H0z"/></clipPath></defs></svg>