<svg xmlns="http://www.w3.org/2000/svg" width="120" height="120" fill="none"><g clip-path="url(#a)"><mask id="b" width="120" height="120" x="0" y="0" maskUnits="userSpaceOnUse" style="mask-type:luminance"><path fill="#fff" d="M0 0h120v120H0V0Z"/></mask><g stroke="#37871C" stroke-linecap="round" stroke-linejoin="round" stroke-miterlimit="22.926" stroke-width="7" mask="url(#b)"><path d="M3.516 28.594 60 3.516l56.484 25.078M63.26 88.36c-6.22-7.037-15.307-11.485-25.4-11.485h-.434c-18.677 0-33.91 15.234-33.91 33.911v5.698h63.75M37.644 75.82c9.681 0 17.578-7.896 17.578-17.578 0-9.681-7.897-17.578-17.578-17.578-9.682 0-17.579 7.896-17.579 17.578 0 9.682 7.897 17.578 17.579 17.578Z"/><path d="M67.206 72.37h45.588a3.7 3.7 0 0 1 3.69 3.69v36.734a3.7 3.7 0 0 1-3.69 3.69H67.206a3.7 3.7 0 0 1-3.69-3.69V76.06a3.7 3.7 0 0 1 3.69-3.69Z"/><path d="M90 101.458c3.873 0 7.031-3.158 7.031-7.03 0-3.873-3.159-7.032-7.031-7.032-3.873 0-7.031 3.159-7.031 7.031 0 3.873 3.158 7.031 7.031 7.031Zm-69.375 12.448v-12.448m33.806-44.201a17.344 17.344 0 0 1-16.304-4.991m-17.271 4.991a17.344 17.344 0 0 0 16.304-4.991"/></g></g><defs><clipPath id="a"><path fill="#fff" d="M0 0h120v120H0z"/></clipPath></defs></svg>