<svg xmlns="http://www.w3.org/2000/svg" width="259" height="212" fill="none"><g filter="url(#a)"><path fill="#F9C53A" d="M196.744 58.944c35.624 20.565 32.324 63.87-2.298 81.409-35.624 20.566-93.382 20.566-129.006 0-36.375-19.87-37.966-60.377-2.342-80.943 35.624-20.566 98.022-21.032 133.646-.466Z"/></g><circle cx="74.48" cy="74.48" r="74.014" fill="#FED745" stroke="url(#b)" stroke-width=".932" transform="scale(1.22477 .70706) rotate(-45 161.567 65.84)"/><g filter="url(#c)"><path fill="#FFAB44" d="m162.33 65.649 22.479-12.698c22.375 3.981 37.578 25.453 42.383 35.691-2.631 1.087-8.957 4.118-13.213 7.55-4.255 3.432-12.526 2.117-16.129 1.03-7.951-4.633-25.396-14.62-31.573-17.502-6.178-2.883-5.205-10.582-3.947-14.071Z"/></g><g filter="url(#d)"><path fill="#FFAB44" d="m113.256 32.704 22.478-12.698c22.376 3.98 37.579 25.453 42.384 35.691-2.631 1.087-8.957 4.118-13.213 7.55-4.255 3.432-12.526 2.116-16.13 1.03-7.95-4.633-25.395-14.62-31.572-17.503-6.178-2.883-5.205-10.581-3.947-14.07Z"/></g><g filter="url(#e)"><g filter="url(#f)"><path fill="#fff" fill-opacity=".5" d="M56.791 71.297c-5.144-2.877-5.22-11.111-.834-13.42l31.146-14.852c5.152-2.974 13.507-2.974 18.66 0l30.915 14.698c4.771 2.386 4.548 10.599-.604 13.574l-30.311 17.498c-5.153 2.975-13.508 2.975-18.66 0L56.792 71.297Z"/></g><g filter="url(#g)"><rect width="56.084" height="56.084" x=".4" fill="#fff" fill-opacity=".5" stroke="url(#h)" stroke-width=".462" rx="10.542" transform="scale(1.22477 .70706) rotate(-45 124.5 -3.295)"/></g></g><g filter="url(#i)"><path fill="#fff" fill-opacity=".5" d="M110.928 38.647c-5.144-2.877-5.221-11.11-.835-13.42l31.146-14.85c5.153-2.976 13.507-2.976 18.66 0l30.915 14.697c4.771 2.385 4.549 10.598-.604 13.573l-30.311 17.499c-5.153 2.975-13.507 2.975-18.66 0l-30.311-17.499Z"/></g><g filter="url(#j)"><rect width="56.084" height="56.084" x=".4" fill="#fff" fill-opacity=".5" stroke="url(#k)" stroke-width=".462" rx="10.542" transform="scale(1.22477 .70706) rotate(-45 90.863 -79.739)"/></g><g filter="url(#l)"><g filter="url(#m)"><path fill="#fff" fill-opacity=".5" d="M114.65 103.946c-5.144-2.878-5.221-11.111-.835-13.42l31.146-14.852c5.153-2.974 13.507-2.974 18.66 0l30.915 14.698c4.771 2.386 4.549 10.599-.604 13.574l-30.311 17.498c-5.153 2.975-13.507 2.975-18.66 0l-30.311-17.498Z"/></g><g filter="url(#n)"><rect width="56.084" height="56.084" x=".4" fill="#fff" fill-opacity=".5" stroke="url(#o)" stroke-width=".462" rx="10.542" transform="scale(1.22477 .70706) rotate(-45 203.859 -37.232)"/></g></g><g filter="url(#p)"><path fill="#fff" fill-opacity=".5" d="M168.787 71.297c-5.145-2.877-5.221-11.111-.835-13.42l31.146-14.852c5.153-2.974 13.507-2.974 18.66 0l30.915 14.698c4.771 2.386 4.549 10.599-.604 13.574l-30.311 17.498c-5.153 2.975-13.507 2.975-18.66 0l-30.311-17.498Z"/></g><g filter="url(#q)"><rect width="56.084" height="56.084" x=".4" fill="#fff" fill-opacity=".5" stroke="url(#r)" stroke-width=".462" rx="10.542" transform="scale(1.22477 .70706) rotate(-45 170.222 -113.674)"/></g><g filter="url(#s)"><path fill="#FFC045" d="M163.44 35.23c-2.004 1.148-4.213 1.856-6.627 2.124-2.406.264-4.921.085-7.544-.536-2.615-.625-5.218-1.69-7.81-3.196-2.592-1.496-4.418-2.993-5.478-4.489-1.052-1.5-1.339-2.939-.859-4.315.48-1.384 1.714-2.65 3.702-3.799 1.989-1.148 4.178-1.858 6.569-2.13 2.399-.277 4.898-.112 7.497.495 2.592.604 5.18 1.655 7.765 3.156 2.607 1.506 4.448 3.015 5.524 4.53 1.083 1.51 1.396 2.959.94 4.348-.457 1.389-1.683 2.66-3.679 3.812Zm-4.167-2.405c1.362-.786 1.765-1.81 1.207-3.069-.557-1.26-2.208-2.678-4.955-4.254-1.803-1.041-3.49-1.8-5.06-2.278-1.563-.483-2.983-.704-4.259-.664-1.269.036-2.356.315-3.262.838-1.354.782-1.76 1.798-1.218 3.048.541 1.251 2.158 2.658 4.851 4.221 1.826 1.054 3.532 1.83 5.118 2.325 1.586.487 3.021.713 4.306.677 1.276-.04 2.367-.322 3.272-.844Z"/></g><g filter="url(#t)"><path fill="#FFC045" d="m206.772 70.423-3.957-2.285-5.71-14.753 3.412-1.97 5.478 3.163-2.02 1.165 3.645 9.327.185.107 14.101-8.14 4.027 2.325-19.161 11.061Zm15.587-4.174-5.385-3.109-1.66-1.065-16.631-9.601 4.712-2.72 23.769 13.721-4.805 2.774Z"/></g><g filter="url(#u)"><path fill="#FFC045" d="m159.37 106.101-3.621-2.091.627-9.407c.023-.817 0-1.527-.07-2.13-.062-.608-.232-1.14-.511-1.595-.286-.46-.742-.87-1.369-1.233a6.084 6.084 0 0 0-2.275-.763 7.532 7.532 0 0 0-2.472.073 7.209 7.209 0 0 0-2.286.838c-.727.42-1.215.87-1.463 1.353-.247.483-.243.967.012 1.454s.762.95 1.52 1.387l-4.769 2.754c-1.556-.898-2.554-1.88-2.995-2.948-.441-1.068-.34-2.149.302-3.243.642-1.094 1.791-2.12 3.447-3.075a17.71 17.71 0 0 1 5.35-2.044c1.865-.388 3.679-.48 5.443-.275 1.764.206 3.331.704 4.7 1.494.898.519 1.606 1.133 2.124 1.843.526.706.875 1.626 1.045 2.76.162 1.13.17 2.596.023 4.396l-.07 3.966.163.094 9.981-5.762 4.108 2.372-16.944 9.782Z"/></g><g filter="url(#v)"><path fill="#FFC045" d="M110.344 68.703c-2.004 1.148-4.213 1.856-6.627 2.124-2.406.264-4.92.085-7.543-.536-2.615-.625-5.219-1.69-7.81-3.196-2.593-1.496-4.419-2.992-5.479-4.489-1.052-1.5-1.338-2.939-.859-4.315.48-1.384 1.714-2.65 3.703-3.798 1.988-1.149 4.178-1.859 6.568-2.131 2.399-.277 4.898-.112 7.498.496 2.592.603 5.18 1.655 7.764 3.155 2.607 1.506 4.449 3.015 5.524 4.53 1.083 1.51 1.397 2.959.94 4.348-.456 1.39-1.683 2.66-3.679 3.812Zm-4.166-2.405c1.362-.786 1.764-1.81 1.207-3.069-.557-1.26-2.209-2.678-4.956-4.254-1.803-1.04-3.49-1.8-5.06-2.278-1.563-.483-2.983-.704-4.26-.664-1.268.036-2.355.315-3.26.838-1.354.782-1.76 1.798-1.219 3.048.542 1.251 2.159 2.658 4.851 4.222 1.826 1.054 3.532 1.829 5.118 2.324 1.586.487 3.022.713 4.306.677 1.277-.04 2.368-.322 3.273-.844Z"/></g><defs><filter id="a" width="234.458" height="167.972" x="12.385" y="43.751" color-interpolation-filters="sRGB" filterUnits="userSpaceOnUse"><feFlood flood-opacity="0" result="BackgroundImageFix"/><feColorMatrix in="SourceAlpha" result="hardAlpha" values="0 0 0 0 0 0 0 0 0 0 0 0 0 0 0 0 0 0 127 0"/><feOffset dy="31.081"/><feGaussianBlur stdDeviation="12.432"/><feComposite in2="hardAlpha" operator="out"/><feColorMatrix values="0 0 0 0 1 0 0 0 0 0.816315 0 0 0 0 0.343982 0 0 0 0.5 0"/><feBlend in2="BackgroundImageFix" result="effect1_dropShadow_2319_404"/><feBlend in="SourceGraphic" in2="effect1_dropShadow_2319_404" result="shape"/></filter><filter id="c" width="82.27" height="61.925" x="153.159" y="44.715" color-interpolation-filters="sRGB" filterUnits="userSpaceOnUse"><feFlood flood-opacity="0" result="BackgroundImageFix"/><feBlend in="SourceGraphic" in2="BackgroundImageFix" result="shape"/><feGaussianBlur result="effect1_foregroundBlur_2319_404" stdDeviation="4.118"/></filter><filter id="d" width="82.27" height="61.925" x="104.085" y="11.769" color-interpolation-filters="sRGB" filterUnits="userSpaceOnUse"><feFlood flood-opacity="0" result="BackgroundImageFix"/><feBlend in="SourceGraphic" in2="BackgroundImageFix" result="shape"/><feGaussianBlur result="effect1_foregroundBlur_2319_404" stdDeviation="4.118"/></filter><filter id="e" width="116.221" height="83.688" x="38.337" y="34.935" color-interpolation-filters="sRGB" filterUnits="userSpaceOnUse"><feFlood flood-opacity="0" result="BackgroundImageFix"/><feColorMatrix in="SourceAlpha" result="hardAlpha" values="0 0 0 0 0 0 0 0 0 0 0 0 0 0 0 0 0 0 127 0"/><feOffset dy="13.142"/><feGaussianBlur stdDeviation="7.227"/><feComposite in2="hardAlpha" operator="out"/><feColorMatrix values="0 0 0 0 1 0 0 0 0 0.66256 0 0 0 0 0.266435 0 0 0 1 0"/><feBlend in2="BackgroundImageFix" result="effect1_dropShadow_2319_404"/><feBlend in="SourceGraphic" in2="effect1_dropShadow_2319_404" result="shape"/></filter><filter id="f" width="99.624" height="62.544" x="46.636" y="34.638" color-interpolation-filters="sRGB" filterUnits="userSpaceOnUse"><feFlood flood-opacity="0" result="BackgroundImageFix"/><feGaussianBlur in="BackgroundImageFix" stdDeviation="3.078"/><feComposite in2="SourceAlpha" operator="in" result="effect1_backgroundBlur_2319_404"/><feBlend in="SourceGraphic" in2="effect1_backgroundBlur_2319_404" result="shape"/></filter><filter id="g" width="99.323" height="62.544" x="46.772" y="30.093" color-interpolation-filters="sRGB" filterUnits="userSpaceOnUse"><feFlood flood-opacity="0" result="BackgroundImageFix"/><feGaussianBlur in="BackgroundImageFix" stdDeviation="3.078"/><feComposite in2="SourceAlpha" operator="in" result="effect1_backgroundBlur_2319_404"/><feBlend in="SourceGraphic" in2="effect1_backgroundBlur_2319_404" result="shape"/></filter><filter id="i" width="99.624" height="62.544" x="100.773" y="1.989" color-interpolation-filters="sRGB" filterUnits="userSpaceOnUse"><feFlood flood-opacity="0" result="BackgroundImageFix"/><feGaussianBlur in="BackgroundImageFix" stdDeviation="3.078"/><feComposite in2="SourceAlpha" operator="in" result="effect1_backgroundBlur_2319_404"/><feBlend in="SourceGraphic" in2="effect1_backgroundBlur_2319_404" result="shape"/></filter><filter id="j" width="99.323" height="62.544" x="100.908" y="-2.556" color-interpolation-filters="sRGB" filterUnits="userSpaceOnUse"><feFlood flood-opacity="0" result="BackgroundImageFix"/><feGaussianBlur in="BackgroundImageFix" stdDeviation="3.078"/><feComposite in2="SourceAlpha" operator="in" result="effect1_backgroundBlur_2319_404"/><feBlend in="SourceGraphic" in2="effect1_backgroundBlur_2319_404" result="shape"/></filter><filter id="l" width="116.221" height="83.688" x="96.195" y="67.584" color-interpolation-filters="sRGB" filterUnits="userSpaceOnUse"><feFlood flood-opacity="0" result="BackgroundImageFix"/><feColorMatrix in="SourceAlpha" result="hardAlpha" values="0 0 0 0 0 0 0 0 0 0 0 0 0 0 0 0 0 0 127 0"/><feOffset dy="13.142"/><feGaussianBlur stdDeviation="7.227"/><feComposite in2="hardAlpha" operator="out"/><feColorMatrix values="0 0 0 0 1 0 0 0 0 0.66256 0 0 0 0 0.266435 0 0 0 1 0"/><feBlend in2="BackgroundImageFix" result="effect1_dropShadow_2319_404"/><feBlend in="SourceGraphic" in2="effect1_dropShadow_2319_404" result="shape"/></filter><filter id="m" width="99.624" height="62.544" x="104.494" y="67.287" color-interpolation-filters="sRGB" filterUnits="userSpaceOnUse"><feFlood flood-opacity="0" result="BackgroundImageFix"/><feGaussianBlur in="BackgroundImageFix" stdDeviation="3.078"/><feComposite in2="SourceAlpha" operator="in" result="effect1_backgroundBlur_2319_404"/><feBlend in="SourceGraphic" in2="effect1_backgroundBlur_2319_404" result="shape"/></filter><filter id="n" width="99.323" height="62.544" x="104.63" y="62.741" color-interpolation-filters="sRGB" filterUnits="userSpaceOnUse"><feFlood flood-opacity="0" result="BackgroundImageFix"/><feGaussianBlur in="BackgroundImageFix" stdDeviation="3.078"/><feComposite in2="SourceAlpha" operator="in" result="effect1_backgroundBlur_2319_404"/><feBlend in="SourceGraphic" in2="effect1_backgroundBlur_2319_404" result="shape"/></filter><filter id="p" width="99.624" height="62.544" x="158.631" y="34.638" color-interpolation-filters="sRGB" filterUnits="userSpaceOnUse"><feFlood flood-opacity="0" result="BackgroundImageFix"/><feGaussianBlur in="BackgroundImageFix" stdDeviation="3.078"/><feComposite in2="SourceAlpha" operator="in" result="effect1_backgroundBlur_2319_404"/><feBlend in="SourceGraphic" in2="effect1_backgroundBlur_2319_404" result="shape"/></filter><filter id="q" width="99.323" height="62.544" x="158.766" y="30.093" color-interpolation-filters="sRGB" filterUnits="userSpaceOnUse"><feFlood flood-opacity="0" result="BackgroundImageFix"/><feGaussianBlur in="BackgroundImageFix" stdDeviation="3.078"/><feComposite in2="SourceAlpha" operator="in" result="effect1_backgroundBlur_2319_404"/><feBlend in="SourceGraphic" in2="effect1_backgroundBlur_2319_404" result="shape"/></filter><filter id="s" width="43.835" height="26.032" x="129.215" y="15.472" color-interpolation-filters="sRGB" filterUnits="userSpaceOnUse"><feFlood flood-opacity="0" result="BackgroundImageFix"/><feBlend in="SourceGraphic" in2="BackgroundImageFix" result="shape"/><feColorMatrix in="SourceAlpha" result="hardAlpha" values="0 0 0 0 0 0 0 0 0 0 0 0 0 0 0 0 0 0 127 0"/><feOffset dy="1.688"/><feGaussianBlur stdDeviation=".363"/><feComposite in2="hardAlpha" k2="-1" k3="1" operator="arithmetic"/><feColorMatrix values="0 0 0 0 1 0 0 0 0 1 0 0 0 0 1 0 0 0 1 0"/><feBlend in2="shape" result="effect1_innerShadow_2319_404"/></filter><filter id="t" width="42.929" height="25.51" x="187.183" y="48.052" color-interpolation-filters="sRGB" filterUnits="userSpaceOnUse"><feFlood flood-opacity="0" result="BackgroundImageFix"/><feBlend in="SourceGraphic" in2="BackgroundImageFix" result="shape"/><feColorMatrix in="SourceAlpha" result="hardAlpha" values="0 0 0 0 0 0 0 0 0 0 0 0 0 0 0 0 0 0 127 0"/><feOffset dy="1.688"/><feGaussianBlur stdDeviation=".363"/><feComposite in2="hardAlpha" k2="-1" k3="1" operator="arithmetic"/><feColorMatrix values="0 0 0 0 1 0 0 0 0 1 0 0 0 0 1 0 0 0 1 0"/><feBlend in2="shape" result="effect1_innerShadow_2319_404"/></filter><filter id="u" width="41.27" height="24.552" x="135.044" y="82.409" color-interpolation-filters="sRGB" filterUnits="userSpaceOnUse"><feFlood flood-opacity="0" result="BackgroundImageFix"/><feBlend in="SourceGraphic" in2="BackgroundImageFix" result="shape"/><feColorMatrix in="SourceAlpha" result="hardAlpha" values="0 0 0 0 0 0 0 0 0 0 0 0 0 0 0 0 0 0 127 0"/><feOffset dy="1.688"/><feGaussianBlur stdDeviation=".363"/><feComposite in2="hardAlpha" k2="-1" k3="1" operator="arithmetic"/><feColorMatrix values="0 0 0 0 1 0 0 0 0 1 0 0 0 0 1 0 0 0 1 0"/><feBlend in2="shape" result="effect1_innerShadow_2319_404"/></filter><filter id="v" width="43.835" height="26.032" x="76.119" y="48.945" color-interpolation-filters="sRGB" filterUnits="userSpaceOnUse"><feFlood flood-opacity="0" result="BackgroundImageFix"/><feBlend in="SourceGraphic" in2="BackgroundImageFix" result="shape"/><feColorMatrix in="SourceAlpha" result="hardAlpha" values="0 0 0 0 0 0 0 0 0 0 0 0 0 0 0 0 0 0 127 0"/><feOffset dy="1.688"/><feGaussianBlur stdDeviation=".363"/><feComposite in2="hardAlpha" k2="-1" k3="1" operator="arithmetic"/><feColorMatrix values="0 0 0 0 1 0 0 0 0 1 0 0 0 0 1 0 0 0 1 0"/><feBlend in2="shape" result="effect1_innerShadow_2319_404"/></filter><linearGradient id="b" x1="12.907" x2="78.304" y1="60.591" y2="121.926" gradientUnits="userSpaceOnUse"><stop stop-color="#fff" stop-opacity=".43"/><stop offset=".847" stop-color="#fff" stop-opacity=".44"/><stop offset="1" stop-color="#fff" stop-opacity="0"/></linearGradient><linearGradient id="h" x1="6.825" x2="32.639" y1="24.772" y2="49.199" gradientUnits="userSpaceOnUse"><stop stop-color="#fff" stop-opacity=".09"/><stop offset=".847" stop-color="#fff" stop-opacity=".79"/><stop offset="1" stop-color="#fff" stop-opacity=".17"/></linearGradient><linearGradient id="k" x1="6.825" x2="32.639" y1="24.772" y2="49.199" gradientUnits="userSpaceOnUse"><stop stop-color="#fff" stop-opacity=".09"/><stop offset=".847" stop-color="#fff" stop-opacity=".79"/><stop offset="1" stop-color="#fff" stop-opacity=".17"/></linearGradient><linearGradient id="o" x1="6.825" x2="32.639" y1="24.772" y2="49.199" gradientUnits="userSpaceOnUse"><stop stop-color="#fff" stop-opacity=".09"/><stop offset=".847" stop-color="#fff" stop-opacity=".79"/><stop offset="1" stop-color="#fff" stop-opacity=".17"/></linearGradient><linearGradient id="r" x1="6.825" x2="32.639" y1="24.772" y2="49.199" gradientUnits="userSpaceOnUse"><stop stop-color="#fff" stop-opacity=".09"/><stop offset=".847" stop-color="#fff" stop-opacity=".79"/><stop offset="1" stop-color="#fff" stop-opacity=".17"/></linearGradient></defs></svg>