<svg xmlns="http://www.w3.org/2000/svg" width="61" height="12" fill="none"><g fill="#111" clip-path="url(#a)"><path d="M4.08 7.736c0 .656.143 1.158.331 1.463.246.399.614.568.989.568.483 0 .926-.12 1.778-1.3.683-.944 1.488-2.27 2.029-3.101l.917-1.409c.636-.978 1.374-2.066 2.218-2.803.69-.601 1.434-.936 2.184-.936 1.257 0 2.455.729 3.372 2.096 1.004 1.497 1.49 3.382 1.49 5.328 0 1.156-.228 2.007-.615 2.678-.375.65-1.106 1.298-2.334 1.298V9.767c1.051 0 1.314-.967 1.314-2.074 0-1.577-.368-3.327-1.178-4.577-.574-.887-1.32-1.429-2.139-1.429-.886 0-1.6.669-2.4 1.86-.427.634-.865 1.405-1.356 2.276l-.54.958C9.053 8.707 8.778 9.146 8.235 9.87c-.952 1.268-1.765 1.748-2.835 1.748-1.27 0-2.073-.55-2.57-1.378-.406-.675-.605-1.561-.605-2.57l1.854.066Z"/><path d="M3.687 2.444C4.537 1.134 5.763.218 7.17.218c.814 0 1.624.241 2.47.932.925.755 1.911 1.998 3.141 4.047l.441.735c1.065 1.774 1.671 2.687 2.025 3.117.456.553.776.718 1.19.718 1.053 0 1.316-.967 1.316-2.074l1.635-.051c0 1.156-.228 2.007-.616 2.678-.375.65-1.105 1.298-2.334 1.298-.764 0-1.44-.166-2.19-.872-.575-.542-1.248-1.505-1.765-2.37l-1.54-2.571c-.772-1.29-1.48-2.253-1.89-2.688-.441-.47-1.008-1.035-1.913-1.035-.732 0-1.354.514-1.875 1.3l-1.578-.938Z"/><path d="M7.14 2.082c-.732 0-1.354.514-1.875 1.3C4.53 4.492 4.08 6.148 4.08 7.736c0 .656.144 1.158.332 1.463l-1.58 1.041c-.407-.675-.606-1.561-.606-2.57 0-1.836.504-3.748 1.462-5.226C4.537 1.134 5.763.218 7.17.218l-.03 1.864ZM22.992.579h2.145l3.646 6.596L32.43.58h2.098v10.838h-1.75V3.11L29.58 8.863h-1.64l-3.2-5.753v8.308h-1.749V.579ZM40.01 4.62c-1.254 0-2.01.944-2.19 2.114h4.257c-.088-1.205-.782-2.114-2.067-2.114ZM36.084 7.4c0-2.46 1.59-4.251 3.956-4.251 2.327 0 3.717 1.768 3.717 4.382v.48h-5.939c.21 1.272 1.055 2.13 2.415 2.13 1.086 0 1.765-.332 2.408-.938l.93 1.139c-.876.805-1.99 1.27-3.4 1.27-2.56 0-4.087-1.869-4.087-4.213Zm9.794-2.625h-1.61V3.342h1.61V.974h1.687v2.369h2.447v1.433h-2.447v3.63c0 1.24.396 1.68 1.37 1.68.445 0 .7-.037 1.077-.1v1.417c-.456.13-.928.195-1.402.193-1.822 0-2.733-.996-2.733-2.988V4.775ZM57.119 6.17c-.339-.857-1.095-1.487-2.206-1.487-1.445 0-2.369 1.025-2.369 2.694 0 1.628.851 2.702 2.3 2.702 1.138 0 1.951-.662 2.275-1.487V6.17Zm1.688 5.248H57.15v-1.13c-.463.666-1.306 1.324-2.67 1.324-2.196 0-3.663-1.838-3.663-4.235 0-2.42 1.502-4.227 3.756-4.227 1.113 0 1.987.445 2.577 1.231V3.343h1.657v8.075Z"/></g><defs><clipPath id="a"><path fill="#fff" d="M.549 0h60v12h-60z"/></clipPath></defs></svg>