<svg xmlns="http://www.w3.org/2000/svg" width="177" height="177" fill="none"><path fill="#fff" fill-opacity=".78" d="M99.943.553c-8.263 1.14-16.18 3.664-25.098 8.09-9.784 4.839-17.113 10.024-24.718 17.526l-3.976 3.941-3.802.346c-14.105 1.21-25.651 5.497-33.603 12.445-2.316 2.04-2.834 2.835-2.87 4.425 0 .83.278 1.418 1.142 2.247 1.002 1.003 1.763 1.245 9.057 2.939 4.39 1.037 7.986 1.901 8.02 1.901.035.035-.138.657-.38 1.383-.242.691-.38 1.729-.276 2.213.207 1.313 27.863 28.97 29.177 29.177.484.104 1.521-.035 2.212-.277.726-.242 1.349-.415 1.349-.38.034.035.899 3.63 1.901 8.02 1.729 7.295 1.97 8.055 2.973 9.092 1.867 1.902 3.665 1.487 6.326-1.417 7.088-7.813 11.616-19.843 12.792-33.948l.31-3.803 3.942-3.975c7.501-7.537 12.722-14.9 17.596-24.718 4.702-9.507 7.329-18.253 8.297-27.518.518-4.805.311-6.188-1.106-7.364-.899-.795-1.349-.898-3.354-.864-1.279.035-3.941.242-5.911.519Zm3.077 7.363c0 .173-.312 2.074-.657 4.252-1.625 9.369-5.843 19.878-11.65 28.867-5.22 8.124-9.23 12.445-22.61 24.44-6.36 5.74-12.168 10.994-12.963 11.686l-1.383 1.279L42.97 67.688 32.185 56.902l2.489-2.765c19.256-21.572 23.335-25.79 29.8-30.699 9.748-7.363 22.54-13.136 33.637-15.107 4.355-.795 4.909-.83 4.909-.415ZM38.304 38.96c-5.117 5.877-8.366 9.265-8.85 9.161-2.593-.518-11.028-2.627-11.235-2.834-.415-.38 5.565-3.25 9.368-4.495 3.353-1.106 8.539-2.316 10.233-2.385.933-.034.968 0 .484.553ZM71.56 76.504c-.415 1.936-1.141 4.77-1.625 6.291-1.037 3.354-4.218 10.026-4.598 9.611-.207-.207-2.35-8.677-2.835-11.235-.138-.796 9.541-9.507 9.68-8.747.069.311-.208 2.144-.623 4.08Z"/><path fill="#fff" fill-opacity=".78" d="M160.406 30.007c-1.728.9-18.287 10.544-19.428 11.27-1.349.9-1.867 2.8-1.21 4.39.622 1.487 2.593 2.559 3.975 2.213.484-.104 3.319-1.625 6.292-3.353 2.939-1.729 5.497-3.215 5.67-3.319 1.106-.622-3.665 11.477-7.64 19.463-16.421 32.98-45.322 56.592-85.147 69.59-16.663 5.428-36.748 9.092-52.893 9.611-7.329.242-8.435.484-9.334 1.97-.83 1.349-.864 2.351-.138 3.734.934 1.798 2.35 2.143 7.917 1.867 32.358-1.521 63.575-9.922 88.5-23.854 31.32-17.458 53.065-43.109 64.854-76.47.829-2.316 1.59-4.148 1.728-4.079.104.104 1.763 2.8 3.63 6.085 3.561 6.153 4.218 6.88 6.326 6.88 1.487 0 3.112-1.556 3.388-3.181.173-1.176-.242-2.04-5.324-10.89-3.042-5.29-5.738-9.956-5.946-10.406-.518-.967-2.35-2.143-3.318-2.143-.415 0-1.245.277-1.902.622ZM18.945 72.563c-2.593.864-5.151 2.489-6.845 4.425-1.521 1.728-4.01 6.637-6.223 12.203C3.768 94.411 0 106.027 0 107.168c0 1.348 1.487 3.042 2.938 3.319 2.351.414 21.71-6.5 27.691-9.922 5.635-3.215 8.366-8.124 8.02-14.278-.103-1.66-.483-3.56-.933-4.701-1.452-3.803-4.874-7.225-8.677-8.712-2.696-1.037-7.433-1.21-10.095-.311Zm8.677 7.882c.933.588 2.005 1.66 2.627 2.662 1.936 3.18 1.175 7.882-1.625 9.99-2.247 1.695-8.193 4.322-15.764 6.949l-3.491 1.21 1.21-3.491c3.25-9.3 6.119-15.35 7.95-16.767 2.766-2.109 6.223-2.316 9.093-.553Z"/><path fill="#fff" fill-opacity=".78" d="M157.053 74.153c-2.351 1.002-2.178-2.662-2.109 51.648l.104 49.055.83.899c1.659 1.763 4.909 1.383 5.877-.692.276-.622.38-14.485.38-49.85 0-54.414.207-50.058-2.282-51.095-1.383-.588-1.417-.588-2.8.035Zm-44.596 51.751c-.38.173-.968.83-1.313 1.452-.484.968-.554 3.25-.45 24.303l.104 23.197.83.899c1.659 1.763 4.909 1.383 5.876-.692.277-.622.381-7.743.381-24.199v-23.369l-1.003-1.003c-1.106-1.072-2.904-1.314-4.425-.588Zm-44.25 22.125c-.38.173-.968.83-1.313 1.452-.484.934-.554 2.42-.45 13.241l.104 12.134.83.899c1.659 1.763 4.909 1.383 5.876-.692.242-.587.38-4.839.38-13.136V149.62l-1.002-1.003c-1.106-1.072-2.904-1.314-4.425-.588Zm-44.25 11.063c-1.66.795-1.901 2.005-1.763 9.161.104 6.43.138 6.638.934 7.502 1.659 1.763 4.909 1.383 5.877-.692.242-.553.38-3.388.38-7.605v-6.776l-1.003-1.002c-1.106-1.072-2.904-1.314-4.425-.588Z"/></svg>