<svg xmlns="http://www.w3.org/2000/svg" width="120" height="120" fill="none"><path stroke="#0074B8" stroke-linecap="round" stroke-linejoin="round" stroke-miterlimit="10" stroke-width="7" d="M97.5 115.312a9.375 9.375 0 1 0 0-18.749 9.375 9.375 0 0 0 0 18.749Zm8.438-45.937c5.177 0 9.374-4.197 9.374-9.375s-4.197-9.375-9.374-9.375a9.375 9.375 0 1 0 0 18.75ZM97.5 23.438a9.375 9.375 0 0 0 9.375-9.375 9.375 9.375 0 1 0-9.375 9.375Z"/><path stroke="#0074B8" stroke-linecap="round" stroke-linejoin="round" stroke-miterlimit="10" stroke-width="7" d="M60.938 88.125h18.75L90.87 99.308M60.938 31.875h18.75L90.87 20.692M96.563 60h-45"/><path stroke="#0074B8" stroke-linecap="round" stroke-linejoin="round" stroke-miterlimit="10" stroke-width="7" d="M35.452 93.984a14 14 0 0 0-2.64 8.204c0 7.766 6.297 13.124 14.063 13.124 7.767 0 14.063-6.296 14.063-14.062v-82.5c0-7.767-6.297-14.063-14.063-14.063-7.767 0-14.063 5.359-14.063 13.125a14 14 0 0 0 2.64 8.204"/><path stroke="#0074B8" stroke-linecap="round" stroke-linejoin="round" stroke-miterlimit="10" stroke-width="7" d="M33.607 13.142c-.265-.012-.53-.017-.794-.017-10.356 0-18.75 8.394-18.75 18.75a18.75 18.75 0 0 0 .744 5.248c-5.847 1.704-10.12 7.104-10.12 13.502v.002A9.374 9.374 0 0 0 14.063 60m0 0h9.376m-9.375 0a9.375 9.375 0 0 0-9.376 9.373v.002c0 6.397 4.273 11.797 10.12 13.502a18.754 18.754 0 0 0-.745 5.248c0 10.355 8.395 18.75 18.75 18.75.267 0 .532-.006.795-.017"/></svg>