<svg xmlns="http://www.w3.org/2000/svg" width="120" height="120" fill="none"><g fill="#0074B8" clip-path="url(#a)"><path d="M59.804 44.71c-8.868 0-16.085 7.214-16.085 16.083 0 8.868 7.217 16.083 16.085 16.083 8.869 0 16.084-7.215 16.084-16.083 0-8.869-7.215-16.083-16.084-16.083Zm0 25.018c-4.927 0-8.937-4.008-8.937-8.935 0-4.928 4.01-8.935 8.937-8.935 4.925 0 8.935 4.007 8.935 8.935 0 4.927-4.01 8.935-8.935 8.935Z"/><path d="M93.017 42.36c-6.012 0-10.903 4.892-10.903 10.906v7.196c0 12.194-9.92 22.113-22.112 22.113-12.195 0-22.116-9.919-22.116-22.113v-7.196c0-6.014-4.892-10.906-10.906-10.906-6.011 0-10.9 4.892-10.9 10.906v7.062c0 13.539 6.295 26.355 16.933 34.654v21.444A3.574 3.574 0 0 0 36.587 120H83a3.575 3.575 0 0 0 3.574-3.574V95.189c10.896-8.391 17.346-21.446 17.346-35.297v-6.626c0-6.014-4.89-10.906-10.903-10.906ZM79.426 93.383v19.469H40.16V93.19c0-1.153-.56-2.237-1.498-2.909-9.667-6.898-15.435-18.094-15.435-29.953v-7.062a3.758 3.758 0 0 1 3.752-3.758 3.76 3.76 0 0 1 3.758 3.758v7.196c0 16.135 13.126 29.261 29.264 29.261 16.133 0 29.26-13.126 29.26-29.261v-7.196a3.76 3.76 0 0 1 3.757-3.758 3.758 3.758 0 0 1 3.753 3.758v6.626c0 12.159-5.919 23.586-15.83 30.57a3.572 3.572 0 0 0-1.516 2.921ZM45.918 26.837l-.55 10.598c-.133 2.61 2.484 4.464 4.889 3.505L60 37.068l9.743 3.872c2.408.955 5.022-.894 4.889-3.505l-.55-10.598 6.576-7.99c1.637-1.981.698-5.012-1.792-5.71L68.704 10.28l-5.721-8.676c-1.408-2.14-4.56-2.138-5.966 0l-5.721 8.675-10.162 2.857c-2.494.7-3.426 3.733-1.792 5.712l6.576 7.989Zm10.613-11.508L60 10.065l3.469 5.264a3.57 3.57 0 0 0 2.018 1.472l6.171 1.735-3.976 4.83a3.575 3.575 0 0 0-.81 2.456l.333 6.419-5.885-2.34a3.575 3.575 0 0 0-2.64 0l-5.886 2.34.334-6.419a3.576 3.576 0 0 0-.81-2.456l-3.977-4.83 6.171-1.735a3.571 3.571 0 0 0 2.019-1.472ZM32.52 34.653a3.574 3.574 0 1 0 5.055-5.054l-13.44-13.44a3.574 3.574 0 0 0-5.055 5.054l13.44 13.44Zm55.797 0 13.441-13.44a3.574 3.574 0 1 0-5.055-5.055l-13.44 13.44a3.574 3.574 0 1 0 5.054 5.055Z"/></g><defs><clipPath id="a"><path fill="#fff" d="M0 0h120v120H0z"/></clipPath></defs></svg>