<svg xmlns="http://www.w3.org/2000/svg" width="17" height="17" fill="none"><path fill="#fff" d="M11.136 14.556H4.47a1.987 1.987 0 0 1-1.414-.586 1.987 1.987 0 0 1-.586-1.414V5.889c0-.534.208-1.036.586-1.414.377-.378.88-.586 1.414-.586h2.666a.667.667 0 1 1 0 1.333H4.47a.662.662 0 0 0-.472.196.662.662 0 0 0-.195.471v6.667a.663.663 0 0 0 .667.666h6.666a.662.662 0 0 0 .667-.667V9.89a.667.667 0 0 1 1.333 0v2.667a1.99 1.99 0 0 1-.585 1.414c-.378.378-.88.586-1.415.586Zm-4-4a.667.667 0 0 1-.471-1.138l5.529-5.529h-2.39a.667.667 0 1 1 0-1.333h4c.173 0 .34.068.465.19h.001v.001l.002.001.001.001.002.002v.001l.002.001.002.002.001.002c.122.124.19.291.19.465v4a.667.667 0 0 1-1.334 0v-2.39L7.608 10.36a.666.666 0 0 1-.472.196Z"/></svg>