<svg xmlns="http://www.w3.org/2000/svg" width="120" height="120" fill="none"><path fill="#D5A731" stroke="#D5A731" d="M29.559 38.322h-.5v6.075H90.94v-6.075H29.56Z"/><path fill="#D5A731" stroke="#D5A731" d="M21.948 87.522h1.21l-.061-.062c5.34-.572 9.498-5.093 9.498-10.586V48.97c0-5.88-4.766-10.647-10.647-10.647-5.88 0-10.647 4.766-10.647 10.647v27.904c0 5.881 4.767 10.648 10.647 10.648Zm76.103 0h1.18l-.057-.059c5.353-.56 9.525-5.087 9.525-10.589V48.97c0-5.88-4.767-10.647-10.648-10.647-5.88 0-10.646 4.766-10.646 10.647v27.904c0 5.881 4.766 10.648 10.647 10.648ZM17.374 48.97a4.573 4.573 0 0 1 9.148 0v27.904a4.574 4.574 0 0 1-9.147 0V48.97Zm76.104 0a4.573 4.573 0 0 1 9.147 0v27.904a4.574 4.574 0 1 1-9.147 0V48.97Z"/><path fill="#D5A731" stroke="#D5A731" d="M52.486 90.535h-.5v18.033a4.509 4.509 0 1 1-9.018 0V90.535h-8.014a2.005 2.005 0 0 1-2.005-2.004V40.942c0-14.94 12.111-27.05 27.051-27.05 14.941 0 27.052 12.11 27.052 27.05v47.59a2.004 2.004 0 0 1-2.005 2.003h-8.014v18.033a4.51 4.51 0 0 1-9.019 0V90.535H52.486Zm9.519 18.033c0 5.809 4.71 10.519 10.519 10.519 5.81 0 10.518-4.71 10.518-10.519V96.545h2.005a8.014 8.014 0 0 0 8.014-8.014V40.942c0-18.258-14.802-33.06-33.06-33.06-18.26 0-33.061 14.802-33.061 33.06v47.59a8.014 8.014 0 0 0 8.014 8.013h2.004v12.023c0 5.809 4.71 10.519 10.519 10.519 5.81 0 10.519-4.71 10.519-10.519V96.545h4.009v12.023Z"/><path fill="#D5A731" stroke="#D5A731" d="M50.353 26.14v-.5H44.28v6.072h6.074V26.14Zm25.368 0v-.5h-6.074v6.072h6.074V26.14ZM36.07 5.171l-.415.279.279.415 7.026 10.457.279.415.415-.279 4.21-2.83.416-.278-.28-.416-7.026-10.457-.28-.415-.414.28-4.21 2.829Zm35.875 7.68-.278.415.414.28 4.213 2.83.416.28.278-.415L84.01 5.793l.279-.415-.415-.279-4.213-2.831-.415-.279-.279.415-7.022 10.448Z"/></svg>