<svg xmlns="http://www.w3.org/2000/svg" width="120" height="120" fill="none"><path stroke="#37871C" stroke-linecap="round" stroke-linejoin="round" stroke-miterlimit="10" stroke-width="7" d="M81.937 108.75H14.53a7.031 7.031 0 0 1-7.031-7.031V10.547a7.031 7.031 0 0 1 7.031-7.031H67.5L90 26.25v14.437"/><path stroke="#37871C" stroke-linecap="round" stroke-linejoin="round" stroke-miterlimit="10" stroke-width="7" d="M89.357 26.25H67.5V4.144m30 81.184v23.656a7.5 7.5 0 0 1-7.5 7.5 7.5 7.5 0 0 1-7.5-7.5V85.288"/><path stroke="#37871C" stroke-linecap="round" stroke-linejoin="round" stroke-miterlimit="10" stroke-width="7" d="M90 86.25c12.426 0 22.5-10.074 22.5-22.5s-10.074-22.5-22.5-22.5-22.5 10.074-22.5 22.5 10.074 22.5 22.5 22.5Zm-67.5-30h45m-45 15h45m-45 15h24.375M22.5 18.75h30v22.5h-30v-22.5Z"/></svg>