<svg xmlns="http://www.w3.org/2000/svg" width="120" height="120" fill="none"><g fill="#EC4300" clip-path="url(#a)"><path d="M116.484 56.484h-2.133v-.25c0-8.779-4.934-15.832-11.361-19.45 3.498-3.062 5.713-7.554 5.713-12.557 0-9.206-7.49-16.696-16.695-16.696-9.206 0-16.696 7.49-16.696 16.696 0 5.003 2.216 9.495 5.713 12.558-6.442 3.624-11.36 10.694-11.36 19.45v.25H38.556a19.411 19.411 0 0 0-11.506-3.766c-10.763 0-19.52 8.756-19.52 19.52 0 6.34 3.04 11.982 7.74 15.55C6.212 92.429 0 101.862 0 112.719v3.765A3.516 3.516 0 0 0 3.516 120h48.953a3.516 3.516 0 0 0 3.515-3.516v-3.765c0-2.699-.385-5.31-1.1-7.781h58.085v4.015a3.516 3.516 0 0 0 7.031 0V60a3.516 3.516 0 0 0-3.516-3.516Zm-34.14-32.257c0-5.329 4.334-9.665 9.664-9.665 5.328 0 9.664 4.336 9.664 9.665 0 5.328-4.335 9.664-9.664 9.664s-9.665-4.336-9.665-9.664Zm-5.648 32.007c0-8.59 6.993-15.312 15.312-15.312 8.294 0 15.312 6.697 15.312 15.313v.25H76.696v-.25ZM27.05 59.75c6.886 0 12.488 5.602 12.488 12.489 0 6.885-5.602 12.487-12.488 12.487-6.886 0-12.489-5.602-12.489-12.487 0-6.887 5.603-12.489 12.49-12.489Zm21.902 53.219H7.031v-.25c0-11.558 9.404-20.961 20.961-20.961 11.558 0 20.961 9.403 20.961 20.961v.25Zm-9.41-25.747c4.292-3.583 7.027-8.97 7.027-14.983a19.393 19.393 0 0 0-2.064-8.723h68.463v34.39H51.734a28.187 28.187 0 0 0-12.19-10.684Z"/><path d="M12.93 46.57h50.836c2.801 0 4.481-3.13 2.925-5.465l-6.94-10.411V12.93C59.75 5.843 54.032 0 46.82 0H12.93C5.756 0 0 5.807 0 12.93v20.711c0 7.106 5.735 12.93 12.93 12.93ZM7.031 12.93a5.89 5.89 0 0 1 5.899-5.9h33.89a5.884 5.884 0 0 1 5.899 5.899v18.828c0 .694.205 1.372.59 1.95l3.888 5.831H12.93a5.887 5.887 0 0 1-5.899-5.9V12.93Z"/><path d="M18.578 20.211h22.594a3.516 3.516 0 0 0 0-7.031H18.578a3.516 3.516 0 0 0 0 7.031Zm0 13.18h11.297a3.517 3.517 0 0 0 0-7.031H18.578a3.516 3.516 0 0 0 0 7.031Z"/></g><defs><clipPath id="a"><path fill="#fff" d="M0 0h120v120H0z"/></clipPath></defs></svg>