<svg xmlns="http://www.w3.org/2000/svg" width="61" height="19" fill="none"><g fill="#111" clip-path="url(#a)"><path d="M37.762 14.649c-3.483 2.658-8.53 4.075-12.877 4.075-6.094 0-11.58-2.333-15.73-6.214-.326-.306-.034-.721.358-.484 4.479 2.698 10.017 4.322 15.737 4.322 3.859 0 8.103-.827 12.005-2.542.59-.26 1.083.4.507.843Z"/><path d="M39.21 12.933c-.443-.588-2.943-.278-4.064-.14-.342.043-.394-.265-.086-.486 1.99-1.45 5.256-1.032 5.637-.546.38.489-.1 3.879-1.97 5.497-.286.248-.56.116-.433-.214.42-1.086 1.362-3.52.916-4.11ZM35.224 2.068V.658c0-.213.156-.356.344-.356h6.097c.195 0 .352.145.352.356v1.207c-.003.203-.167.468-.46.886L38.4 7.421c1.173-.03 2.413.151 3.477.773.24.14.305.345.323.548v1.504c0 .205-.219.446-.448.322-1.876-1.019-4.367-1.13-6.441.01-.211.12-.433-.118-.433-.324V8.826c0-.23.003-.622.224-.97l3.66-5.434h-3.185a.343.343 0 0 1-.352-.354Zm-22.239 8.797H11.13a.356.356 0 0 1-.331-.327V.682c0-.197.159-.354.357-.354h1.73c.18.009.323.152.336.33v1.288h.034C13.707.701 14.556.12 15.698.12c1.16 0 1.886.581 2.408 1.826C18.554.701 19.574.12 20.667.12c.778 0 1.628.333 2.147 1.078.587.83.467 2.034.467 3.09l-.002 6.22c0 .197-.16.357-.358.357H21.07a.36.36 0 0 1-.334-.357V5.285c0-.416.037-1.453-.052-1.848-.138-.662-.553-.848-1.09-.848-.45 0-.919.31-1.11.808-.19.497-.171 1.329-.171 1.888v5.223c0 .197-.16.357-.358.357h-1.852a.358.358 0 0 1-.334-.357l-.002-5.223c0-1.1.175-2.718-1.143-2.718-1.333 0-1.28 1.578-1.28 2.718v5.223c0 .197-.16.357-.358.357ZM47.267.12c2.752 0 4.241 2.447 4.241 5.558 0 3.007-1.646 5.391-4.241 5.391-2.703 0-4.174-2.447-4.174-5.496 0-3.068 1.49-5.453 4.174-5.453Zm.015 2.012c-1.367 0-1.453 1.929-1.453 3.13 0 1.205-.018 3.776 1.438 3.776 1.437 0 1.505-2.074 1.505-3.338 0-.832-.034-1.826-.277-2.614-.208-.686-.623-.954-1.213-.954Zm7.795 8.732H53.23a.36.36 0 0 1-.334-.356L52.894.649a.355.355 0 0 1 .357-.321h1.719a.358.358 0 0 1 .331.275v1.508h.034C55.855.763 56.582.12 57.863.12c.832 0 1.644.31 2.165 1.161.485.79.485 2.115.485 3.069v6.204a.36.36 0 0 1-.357.31h-1.86a.356.356 0 0 1-.329-.31V5.2c0-1.077.12-2.655-1.16-2.655-.452 0-.867.314-1.073.79-.26.601-.294 1.201-.294 1.865v5.308a.362.362 0 0 1-.363.356ZM30.364 6.156v-.415c-1.34 0-2.757.297-2.757 1.933 0 .83.415 1.391 1.127 1.391.522 0 .989-.332 1.284-.872.365-.664.346-1.288.346-2.037Zm1.87 4.681a.377.377 0 0 1-.437.046c-.616-.53-.726-.775-1.065-1.28-1.017 1.075-1.737 1.396-3.057 1.396-1.56 0-2.776-.996-2.776-2.992 0-1.559.817-2.62 1.978-3.139 1.007-.459 2.413-.54 3.488-.667v-.248c0-.457.033-.997-.225-1.391-.227-.354-.66-.5-1.04-.5-.708 0-1.339.375-1.493 1.153-.031.173-.154.343-.32.351l-1.8-.2c-.152-.035-.319-.162-.277-.402C25.625.706 27.594.025 29.358.025c.902 0 2.081.249 2.793.957.903.872.817 2.036.817 3.303v2.992c0 .9.36 1.294.7 1.78.12.173.145.381-.006.51a84.79 84.79 0 0 0-1.422 1.276l-.005-.006ZM6.05 6.156V5.74c-1.34 0-2.757.297-2.757 1.934 0 .83.414 1.391 1.127 1.391.521 0 .988-.332 1.283-.872.365-.665.347-1.289.347-2.037Zm1.87 4.68a.377.377 0 0 1-.438.047c-.615-.53-.725-.775-1.064-1.28C5.4 10.677 4.68 10.998 3.36 10.998c-1.56 0-2.776-.997-2.776-2.993 0-1.558.816-2.62 1.977-3.138 1.007-.46 2.413-.54 3.488-.667v-.249c0-.456.034-.996-.224-1.39-.227-.355-.66-.5-1.041-.5-.707 0-1.338.375-1.492 1.153-.032.173-.154.343-.321.351l-1.8-.2C1.02 3.33.853 3.203.894 2.963 1.31.706 3.28.025 5.043.025c.903 0 2.082.249 2.794.956.903.873.816 2.037.816 3.303v2.993c0 .9.36 1.294.7 1.78.12.173.146.38-.006.51-.378.327-1.05.935-1.421 1.275l-.006-.005Z"/></g><defs><clipPath id="a"><path fill="#fff" d="M.549 0h60v18.75h-60z"/></clipPath></defs></svg>