<svg xmlns="http://www.w3.org/2000/svg" width="120" height="120" fill="none"><g fill="#EC4300" fill-rule="evenodd" clip-path="url(#a)" clip-rule="evenodd"><path d="M94.732 60c0-8.02-1.932-15.662-5.747-22.723a3.16 3.16 0 1 0-5.557 3.006C86.737 46.41 88.417 53.041 88.417 60a40.734 40.734 0 0 1-7.465 23.57 46.62 46.62 0 0 0-20.475-12.19 22.024 22.024 0 0 0 8.994-17.695c0-12.19-9.916-22.105-22.105-22.105s-22.104 9.916-22.104 22.105c0 7.262 3.568 13.666 8.993 17.696a46.64 46.64 0 0 0-20.462 12.17A40.785 40.785 0 0 1 6.316 60a40.798 40.798 0 0 1 12.018-29.033A40.781 40.781 0 0 1 47.366 18.95c6.96 0 13.591 1.68 19.724 4.989a3.156 3.156 0 0 0 4.525-3.683 3.158 3.158 0 0 0-1.526-1.875 47.296 47.296 0 0 0-22.723-5.747A47.05 47.05 0 0 0 13.87 26.503 47.063 47.063 0 0 0 0 60c0 26.12 21.245 47.366 47.366 47.366 12.65 0 24.549-4.926 33.498-13.869A47.076 47.076 0 0 0 94.732 60Zm-63.154-6.315c0-8.703 7.086-15.79 15.788-15.79 8.71 0 15.789 7.087 15.789 15.79 0 8.702-7.08 15.788-15.789 15.788a15.807 15.807 0 0 1-15.788-15.788Zm15.788 47.366a40.909 40.909 0 0 1-29.518-12.593 40.584 40.584 0 0 1 29.518-12.67 40.566 40.566 0 0 1 29.531 12.689c-.17.176-.322.379-.505.555a40.799 40.799 0 0 1-29.026 12.019Zm59.075-70.393.922-.928V60a3.159 3.159 0 0 0 6.316 0V29.73l.922.928a3.147 3.147 0 0 0 4.471 0 3.157 3.157 0 0 0 0-4.471l-6.315-6.316a3.164 3.164 0 0 0-3.446-.686c-.384.16-.732.393-1.026.687l-6.315 6.315a3.16 3.16 0 0 0 3.446 5.157 3.159 3.159 0 0 0 1.025-.686Z"/><path d="M80.857 30.974a3.157 3.157 0 1 0-4.387-4.542 3.157 3.157 0 0 0 4.387 4.542Z"/></g><defs><clipPath id="a"><path fill="#fff" d="M0 0h120v120H0z"/></clipPath></defs></svg>