<svg xmlns="http://www.w3.org/2000/svg" width="120" height="120" fill="none"><path stroke="#D5A731" stroke-linecap="round" stroke-linejoin="round" stroke-miterlimit="10" stroke-width="7" d="M82.5 112.031h-45m45.469-75.234 9.191 9.17a6.992 6.992 0 0 1 0 9.909l-9.191 9.046M37.5 36.797l-9.192 9.17a6.992 6.992 0 0 0 0 9.909l9.192 9.046m17.344 4.687 10.781-37.5m49.687-.703v38.438c0 12.944-10.493 23.437-23.437 23.437H28.12c-12.941 0-23.433-10.49-23.433-23.432V31.406c0-12.944 10.494-23.437 23.438-23.437h63.75c12.944 0 23.437 10.493 23.437 23.437Z"/></svg>