<svg xmlns="http://www.w3.org/2000/svg" width="61" height="17" fill="none"><path fill="#111" d="M59.926.12c-.028.05-.064.107-.086.158l-2.995 7.133a.334.334 0 0 0-.007.287l3.016 7.9c.022.05.036.1.065.172-.26-.035-.492-.064-.723-.1-.637-.1-1.266-.209-1.902-.309-.109-.014-.152-.072-.188-.165-.543-1.399-1.093-2.798-1.642-4.205a2.8 2.8 0 0 0-.08-.193c-.036.078-.058.122-.08.172-.556 1.284-1.113 2.562-1.663 3.846-.05.122-.109.143-.239.129-.608-.08-1.215-.15-1.83-.222-.21-.022-.413-.05-.644-.079.057-.13.1-.244.152-.36.983-2.224 1.968-4.448 2.959-6.672a.34.34 0 0 0 .007-.302A980.312 980.312 0 0 1 51.289.27c-.022-.05-.036-.107-.064-.172.057 0 .1-.007.145-.007h2.358c.108 0 .151.036.188.13.498 1.277.998 2.547 1.497 3.825.022.05.043.092.072.171.037-.072.058-.121.08-.172.535-1.27 1.07-2.54 1.598-3.818.044-.107.094-.143.21-.143h2.546a.073.073 0 0 1 .008.036ZM3.871 6.953v8.481c-.839.115-1.663.223-2.495.338V.098h2.177c.116 0 .16.035.195.136 1.028 2.842 2.055 5.69 3.082 8.54a.518.518 0 0 0 .087.164V.106H9.39v14.668c-.21.028-.42.07-.637.092-.622.072-1.237.136-1.86.209-.136.014-.202-.015-.245-.151-.89-2.598-1.787-5.195-2.676-7.794-.022-.064-.044-.121-.065-.186-.015.008-.022.008-.037.008ZM17.565 8.25c-.442 0-.868-.007-1.302 0-.622.008-1.237.022-1.86.029-.093 0-.144.014-.144.128v3.445c0 .029.007.058.007.1 1.455-.093 2.894-.179 4.355-.272a1.7 1.7 0 0 1 .014.18c0 .674 0 1.349.008 2.017 0 .135-.051.171-.174.179-.912.064-1.83.136-2.74.207-1.058.087-2.114.166-3.162.252-.248.02-.497.037-.745.05V.106h6.813c0 .05.008.1.008.15V2.36c0 .136-.044.165-.174.165-1.338-.008-2.676 0-4.015 0-.195 0-.195 0-.195.186V5.84c1.107-.015 2.199-.028 3.299-.05.008.832.008 1.636.008 2.46h-.001ZM36.337.105v2.427h-4.463v3.142h3.356c.008.065.008.109.008.158 0 .704-.008 1.415.006 2.117 0 .144-.05.165-.18.165-.999-.006-2.004 0-3.002 0h-.203v5.554H29.45V.098a1976 1976 0 0 0 6.887.008Zm-16.08 2.427V.104h7.573v2.428h-2.555v11.295h-2.459V2.747c0-.216 0-.216-.224-.216h-2.336ZM37.92.105h2.438v11.432c1.41.079 2.806.15 4.203.222v2.396c-2.207-.106-4.42-.221-6.64-.33V.106Zm11.155 14.41c-.803-.058-1.6-.123-2.402-.18V.105h2.402v14.41Z"/></svg>