<svg xmlns="http://www.w3.org/2000/svg" width="139" height="113" fill="none"><g filter="url(#a)"><path fill="#DB3018" d="M105.583 21.843c19.138 11.048 17.365 34.312-1.234 43.734-19.138 11.049-50.166 11.049-69.304 0-19.541-10.674-20.396-32.435-1.258-43.483 19.137-11.049 52.658-11.3 71.796-.25Z"/></g><circle cx="40.012" cy="40.012" r="39.691" fill="#FE4D40" stroke="url(#b)" stroke-width=".642" transform="scale(1.22477 .70706) rotate(-45 69.982 28.534)"/><path fill="#fff" fill-rule="evenodd" d="M72.126 40.907c4.103-1.747 6.649-.834 8.858.109l.375.161.256.11 1.303.552c2.498 1.05 7.686 3.227 10.023 4.576.584.337.98.627 1.13.824.22.312.119.791-.221 1.338-1.182 1.116-2.607 2.172-4.284 3.14-.177.102-.36.199-.54.297-.867.282-1.69.395-2.39.302-2.11-.278-5.047-1.917-8.439-3.856l-.393-.225-1.019-.58c-3.6-2.048-6.703-3.814-6.481-5.218.088-.542.678-1.045 1.822-1.53Zm.007 8.979c.73-.47 4.945 1.388 7.863 2.958 2.032 1.093 2.629 1.68 2.583 2.042a39.98 39.98 0 0 1-1.53.415c-.683-.11-1.558-.4-2.579-.85-3.195-1.424-7.12-4.056-6.337-4.565Zm24.923-7.974c.21.177.341.33.426.477a9.898 9.898 0 0 1-.659 2.022c-.193.156-.425.26-.691.221-2.618-.4-8.172-3.188-7.692-3.987.64-1.033 7.898.644 8.616 1.267ZM50.31 29.386c10.847-6.262 28.07-6.503 38.77-.607l.367.206.167.097c4.703 2.738 7.248 6.258 7.665 9.88-.158.03-.523.044-1.387-.05-.88-.088-8.725-1.002-14.129-4.122-1.06-.612-1.154-2.47-1.225-4.108-.06-1.228-.114-2.39-.565-3.066-.587-.869-1.64-1.105-2.395-.955-.68.138-1.21.63-.853 1.396.568 1.245.568 1.54.32 2.736-.23 1.184-1.128 2.762-2.315 2.076-.641-.37-1.083-1.792-1.601-2.668-.52-.888-1.814-1.001-2.867-.393-2.068 1.194-.864 3.473.029 3.989.892.514 1.461.332 2.5.932 1.046.604.135 2.697-2.002 3.93-2.057 1.189-3.658 1.642-5.3 1.265l-.224-.057-.556-.156c-1.956-.544-3.37-.94-5.102-1.21-.917-.14-1.838-.074-2.641-.02-1.032.082-1.746.02-2.115-.12-.362-.14-.966-.453-1.282-1.792-.31-1.334-1.16-1.987-2.172-1.993a2.44 2.44 0 0 0-1.186.34c-.702.406-1.314 1.18-1.32 2.337.004 1.808 2.38 2.154 3.032 2.531.653.377.736.756.686 1.81-.053 1.06.385 1.69 3.35 3.527 1.543.938 2.17 1.63 2.722 2.244.487.536.95 1.038 1.901 1.6 1.05.626 1.918.918 2.923 1.254.94.303 2.002.66 3.548 1.39 2.4 1.125 4.159 2.231 5.627 3.551l.361.335.11.093c.246.239.547.527.563.692-8.544.888-17.551-.517-24.017-4.25-10.661-6.154-10.388-16.293.613-22.644Z" clip-rule="evenodd"/><defs><linearGradient id="b" x1="6.934" x2="42.066" y1="32.55" y2="65.5" gradientUnits="userSpaceOnUse"><stop stop-color="#fff" stop-opacity=".43"/><stop offset=".847" stop-color="#fff" stop-opacity=".44"/><stop offset="1" stop-color="#fff" stop-opacity="0"/></linearGradient><filter id="a" width="133.454" height="98.675" x="2.793" y="13.681" color-interpolation-filters="sRGB" filterUnits="userSpaceOnUse"><feFlood flood-opacity="0" result="BackgroundImageFix"/><feColorMatrix in="SourceAlpha" result="hardAlpha" values="0 0 0 0 0 0 0 0 0 0 0 0 0 0 0 0 0 0 127 0"/><feOffset dy="21.384"/><feGaussianBlur stdDeviation="8.554"/><feComposite in2="hardAlpha" operator="out"/><feColorMatrix values="0 0 0 0 1 0 0 0 0 0.462065 0 0 0 0 0.343982 0 0 0 0.5 0"/><feBlend in2="BackgroundImageFix" result="effect1_dropShadow_2319_446"/><feBlend in="SourceGraphic" in2="effect1_dropShadow_2319_446" result="shape"/></filter></defs></svg>