<svg xmlns="http://www.w3.org/2000/svg" width="61" height="20" fill="none"><g clip-path="url(#a)"><path fill="#111" fill-rule="evenodd" d="M15.697 7.133H8.873v1.965h4.84c-.24 2.756-2.602 3.93-4.832 3.93-2.853 0-5.343-2.178-5.343-5.23 0-2.975 2.374-5.265 5.35-5.265 2.295 0 3.648 1.42 3.648 1.42l1.418-1.424S12.133.563 8.814.563c-4.226 0-7.496 3.46-7.496 7.2 0 3.662 3.076 7.235 7.605 7.235 3.983 0 6.897-2.648 6.897-6.562 0-.826-.123-1.303-.123-1.303Zm.954 3.37c0-2.477 2.007-4.6 4.807-4.6 2.303 0 4.798 1.582 4.798 4.655 0 2.68-2.145 4.623-4.765 4.623-2.894 0-4.84-2.164-4.84-4.677Zm7.517.042c0-1.74-1.305-2.82-2.682-2.82-1.547 0-2.736 1.2-2.736 2.806 0 1.643 1.204 2.829 2.73 2.829 1.39 0 2.688-1.111 2.688-2.815Zm2.937-.041c0-2.478 2.008-4.602 4.808-4.602 2.302 0 4.797 1.583 4.797 4.656 0 2.68-2.145 4.623-4.765 4.623-2.893 0-4.84-2.164-4.84-4.677Zm7.518.041c0-1.74-1.306-2.82-2.682-2.82-1.548 0-2.737 1.2-2.737 2.806 0 1.643 1.204 2.829 2.73 2.829 1.39 0 2.689-1.111 2.689-2.815Zm2.936-.008c0-2.45 2.021-4.635 4.59-4.635 1.12 0 1.963.42 2.58 1.065v-.786h2.004v8.337c0 3.274-1.948 4.837-4.503 4.837-2.336 0-3.649-1.395-4.3-2.733l1.837-.745c.255.598.987 1.652 2.448 1.652 1.512 0 2.513-.959 2.513-2.56v-.914c-.535.602-1.26 1.127-2.622 1.127-2.205 0-4.547-1.852-4.547-4.645Zm7.332.01c0-1.782-1.295-2.826-2.554-2.826-1.349 0-2.674 1.062-2.674 2.844 0 1.714 1.275 2.794 2.645 2.794 1.291 0 2.583-.999 2.583-2.811Zm5.91-.012c0-2.761 2.036-4.633 4.461-4.633 1.912 0 3.356 1.238 3.976 2.719l.334.756-6.412 2.582c.383.691 1 1.406 2.345 1.406 1.196 0 1.914-.632 2.343-1.277l1.653 1.066c-.741.963-1.983 2.036-4.007 2.036-2.423 0-4.693-1.732-4.693-4.655Zm6.313-1.858c-.266-.54-.895-.99-1.768-.99-1.385 0-2.698 1.383-2.513 2.727l4.282-1.737Zm-9.1 6.228h2.106V1.23h-2.106v13.674Z" clip-rule="evenodd"/></g><defs><clipPath id="a"><path fill="#fff" d="M.549 0h60v19.355h-60z"/></clipPath></defs></svg>