<svg xmlns="http://www.w3.org/2000/svg" width="120" height="120" fill="none"><g clip-path="url(#a)"><path fill="#EC4300" d="M86.466 9.437C76.56 1.387 63.611-1.712 50.938.937 35.1 4.244 22.18 17.221 18.787 33.226c-2.862 13.496.664 27.045 9.674 37.174 4.469 5.023 6.93 11.308 6.93 17.713v7.031c0 4.583 2.939 8.491 7.03 9.942v4.355c0 5.816 4.732 10.547 10.548 10.547H67.03c5.816 0 10.547-4.731 10.547-10.547v-4.355c4.092-1.451 7.031-5.359 7.031-9.942v-7.031c0-6.323 2.534-12.697 7.135-17.946a42.097 42.097 0 0 0 10.444-27.757c0-12.836-5.73-24.855-15.722-32.974Zm-15.92 100.005a3.52 3.52 0 0 1-3.515 3.516H52.97a3.52 3.52 0 0 1-3.516-3.516v-3.75h21.094v3.75Zm7.032-14.297a3.52 3.52 0 0 1-3.516 3.516H45.939a3.52 3.52 0 0 1-3.516-3.516V91.63h35.156v3.515ZM60 59.68a22.44 22.44 0 0 0 7.031-1.133V84.6H52.97V58.546A22.437 22.437 0 0 0 60 59.679Zm-5.877-8.2L60 39.725l5.877 11.754a15.437 15.437 0 0 1-11.754 0Zm32.334 14.055c-4.889 5.576-7.902 12.238-8.678 19.064h-3.716v-31.63c0-.48-.104-1.008-.338-1.504-.012-.026-.021-.053-.034-.078L63.144 30.292a3.516 3.516 0 0 0-6.289 0L46.308 51.386a3.63 3.63 0 0 0-.37 1.58v31.633H42.23c-.754-6.874-3.71-13.47-8.515-18.871-7.51-8.442-10.443-19.756-8.05-31.042 2.825-13.322 13.56-24.12 26.711-26.867 10.591-2.213 21.4.366 29.656 7.075 8.34 6.778 13.124 16.807 13.124 27.517a35.066 35.066 0 0 1-8.7 23.123ZM10.547 42.41H3.516a3.516 3.516 0 0 0 0 7.031h7.03a3.516 3.516 0 0 0 0-7.031Zm1.456-17.578L7.031 19.86a3.516 3.516 0 0 0-4.972 4.972l4.972 4.972a3.515 3.515 0 1 0 4.972-4.972Zm0 37.215a3.516 3.516 0 0 0-4.972 0L2.06 67.02a3.516 3.516 0 0 0 4.972 4.972l4.972-4.972a3.516 3.516 0 0 0 0-4.972ZM116.484 42.41h-7.031a3.515 3.515 0 0 0 0 7.031h7.031a3.516 3.516 0 1 0 0-7.031Zm1.457-22.55a3.516 3.516 0 0 0-4.972 0l-4.972 4.972a3.515 3.515 0 1 0 4.972 4.972l4.972-4.972a3.515 3.515 0 0 0 0-4.972Zm0 47.16-4.972-4.973a3.516 3.516 0 0 0-4.972 4.972l4.972 4.972a3.516 3.516 0 0 0 4.972-4.972Z"/></g><defs><clipPath id="a"><path fill="#fff" d="M0 0h120v120H0z"/></clipPath></defs></svg>