<svg xmlns="http://www.w3.org/2000/svg" width="143" height="143" fill="none"><g fill="#A70713" clip-path="url(#a)"><path d="M142.832 10.675A11.115 11.115 0 0 0 132.325.168c-11.462-.626-33.89-.017-55.337 11.076-10.933 5.655-22.496 15.243-31.724 26.305-.114.137-.224.274-.337.41l-20.942 1.618a11.056 11.056 0 0 0-8.424 4.957L1.274 66.144a7.625 7.625 0 0 0-.615 7.32 7.626 7.626 0 0 0 5.83 4.47l17.644 2.733c-.062.343-.125.685-.182 1.028-.587 3.514.577 7.126 3.115 9.664l24.576 24.576a11.137 11.137 0 0 0 7.86 3.264c.604 0 1.207-.05 1.803-.15.343-.057.686-.12 1.029-.182l2.733 17.644a7.628 7.628 0 0 0 4.469 5.831 7.68 7.68 0 0 0 3.103.659 7.642 7.642 0 0 0 4.218-1.274l21.61-14.288a11.055 11.055 0 0 0 4.956-8.424l1.617-20.941.411-.337c11.062-9.228 20.65-20.79 26.305-31.724 11.094-21.448 11.702-43.877 11.076-55.338ZM93.846 120.45l-20.672 13.666-2.663-17.195c8.737-2.568 17.379-6.682 25.612-12.194L95.07 118.37a2.726 2.726 0 0 1-1.224 2.08Zm-36.28-10.44L32.99 85.434a2.715 2.715 0 0 1-.775-2.357 72.066 72.066 0 0 1 3.272-12.446l36.875 36.875c-4.706 1.685-8.92 2.691-12.438 3.279a2.718 2.718 0 0 1-2.358-.775ZM24.631 47.931l13.642-1.054c-5.512 8.234-9.626 16.876-12.195 25.613L8.884 69.826l13.667-20.67a2.73 2.73 0 0 1 2.08-1.225Zm75.453 43.371c-6.768 5.645-13.338 9.729-19.394 12.684L39.013 62.308c3.87-7.905 8.595-14.487 12.685-19.391 8.54-10.238 19.16-19.07 29.14-24.231 19.683-10.181 40.421-10.73 51.031-10.152a2.75 2.75 0 0 1 2.597 2.598c.579 10.61.029 31.348-10.152 51.031-5.161 9.979-13.993 20.6-24.23 29.14Z"/><path d="M97.955 65.982c5.363 0 10.728-2.042 14.812-6.125a20.81 20.81 0 0 0 6.135-14.812 20.81 20.81 0 0 0-6.135-14.811c-8.168-8.167-21.457-8.167-29.623 0a20.809 20.809 0 0 0-6.136 14.811 20.81 20.81 0 0 0 6.136 14.812c4.084 4.084 9.446 6.126 14.811 6.125Zm-8.887-29.824a12.528 12.528 0 0 1 8.887-3.675 12.53 12.53 0 0 1 8.887 3.675 12.488 12.488 0 0 1 3.68 8.887c0 3.357-1.307 6.513-3.68 8.887-4.9 4.9-12.874 4.9-17.774 0a12.486 12.486 0 0 1-3.681-8.887 12.49 12.49 0 0 1 3.68-8.887ZM4.273 117.846a4.176 4.176 0 0 0 2.963-1.227l13.678-13.678a4.19 4.19 0 0 0-5.925-5.925L1.31 110.694a4.19 4.19 0 0 0 2.962 7.152Zm29.176-8.295a4.19 4.19 0 0 0-5.925 0L1.227 135.848a4.19 4.19 0 0 0 5.925 5.925l26.297-26.297a4.19 4.19 0 0 0 0-5.925Zm6.61 12.535-13.678 13.678a4.19 4.19 0 0 0 5.925 5.925l13.678-13.678a4.19 4.19 0 0 0-5.925-5.925Z"/></g><defs><clipPath id="a"><path fill="#fff" d="M0 0h143v143H0z"/></clipPath></defs></svg>