<svg xmlns="http://www.w3.org/2000/svg" width="139" height="113" fill="none"><g filter="url(#a)"><path fill="#067157" d="M105.19 21.843c19.138 11.048 17.365 34.312-1.234 43.734-19.138 11.049-50.166 11.049-69.304 0-19.54-10.674-20.396-32.435-1.258-43.483 19.138-11.049 52.659-11.3 71.796-.25Z"/></g><circle cx="40.012" cy="40.012" r="39.691" fill="#0AA27D" stroke="url(#b)" stroke-width=".642" transform="matrix(.86604 -.49997 .86604 .49997 0 40.898)"/><path fill="#007A5C" fill-rule="evenodd" d="M50.214 51.4V29.795h10.961c2.545.063 5.058.653 6.995 1.77 4.1 2.368 4.1 6.229 0 8.596-5.312 3.067-7.645 7.219-6.995 11.239H50.214Zm26.462-21.605h10.961V51.4h-10.96c-2.545-.062-5.059-.652-6.995-1.77-4.1-2.368-4.1-6.228 0-8.596 5.312-3.067 7.644-7.218 6.995-11.238ZM38.683 40.598l7.522-4.343v-8.774h15.2l7.52-4.343 7.522 4.342h15.2v8.775l7.521 4.343-7.521 4.342v8.775h-15.2l-7.521 4.342-7.522-4.342h-15.2V44.94l-7.52-4.342Zm8.858-2.932-5.077 2.932 5.077 2.931v9.414h16.307l5.078 2.931 5.078-2.93H90.31v-9.415l5.078-2.931-5.078-2.932v-9.414H74.004l-5.078-2.931-5.078 2.931H47.541v9.414Z" clip-rule="evenodd"/><path fill="#F9B101" fill-rule="evenodd" d="m47.54 52.943.001-9.414-5.078-2.931 5.078-2.932v-9.414h16.307l5.078-2.931 5.077 2.931H90.31v9.414l5.078 2.932-5.078 2.931v9.414H74.003l-5.077 2.931-5.078-2.93H47.541ZM61.175 51.4c-.649-4.02 1.684-8.172 6.995-11.239 4.101-2.367 4.101-6.228 0-8.595-1.936-1.118-4.45-1.708-6.995-1.77h.001-10.961V51.4h10.961Zm15.502-21.605c.65 4.02-1.682 8.172-6.994 11.24-4.1 2.367-4.1 6.227 0 8.595 1.936 1.118 4.45 1.708 6.995 1.77h10.96V29.795h-10.96Z" clip-rule="evenodd"/><defs><linearGradient id="b" x1="6.934" x2="42.066" y1="32.55" y2="65.5" gradientUnits="userSpaceOnUse"><stop stop-color="#fff" stop-opacity=".43"/><stop offset=".847" stop-color="#fff" stop-opacity=".44"/><stop offset="1" stop-color="#fff" stop-opacity="0"/></linearGradient><filter id="a" width="133.454" height="98.675" x="2.4" y="13.681" color-interpolation-filters="sRGB" filterUnits="userSpaceOnUse"><feFlood flood-opacity="0" result="BackgroundImageFix"/><feColorMatrix in="SourceAlpha" result="hardAlpha" values="0 0 0 0 0 0 0 0 0 0 0 0 0 0 0 0 0 0 127 0"/><feOffset dy="21.384"/><feGaussianBlur stdDeviation="8.554"/><feComposite in2="hardAlpha" operator="out"/><feColorMatrix values="0 0 0 0 0.145842 0 0 0 0 0.37 0 0 0 0 0.315532 0 0 0 0.5 0"/><feBlend in2="BackgroundImageFix" result="effect1_dropShadow_2319_441"/><feBlend in="SourceGraphic" in2="effect1_dropShadow_2319_441" result="shape"/></filter></defs></svg>