<svg xmlns="http://www.w3.org/2000/svg" width="18" height="23" fill="none"><path fill="#111" d="M17.367 7.743c-.126.101-2.356 1.403-2.36 4.305-.007 3.357 2.825 4.55 2.91 4.58-.013.072-.453 1.625-1.5 3.207-.933 1.392-1.908 2.782-3.387 2.78-1.48-.004-1.858-.898-3.566-.9-1.664-.004-2.257.918-3.61.916-1.353-.003-2.294-1.294-3.377-2.88C1.223 17.89.213 15 .217 12.258.226 7.86 2.98 5.532 5.686 5.537c1.437.002 2.634.986 3.537.988.859.001 2.2-1.037 3.836-1.034.62 0 2.847.064 4.31 2.252Zm-5.082-4.116c.678-.833 1.158-1.99 1.16-3.149 0-.16-.012-.323-.04-.455-1.1.041-2.411.758-3.203 1.71-.62.731-1.201 1.889-1.204 3.063 0 .176.028.353.041.41.07.013.183.03.296.03.987.001 2.23-.685 2.95-1.609Z"/></svg>