<svg xmlns="http://www.w3.org/2000/svg" width="55" height="15" fill="none"><g clip-path="url(#a)"><path fill="#F6F6F6" d="M53.637.108c-.026.044-.057.095-.078.14-.892 2.124-1.784 4.254-2.677 6.377a.298.298 0 0 0-.006.257l2.697 7.063c.019.045.032.09.058.153-.233-.031-.44-.057-.647-.09-.569-.09-1.132-.185-1.7-.275-.098-.013-.136-.064-.169-.148-.485-1.25-.977-2.501-1.468-3.759a2.514 2.514 0 0 0-.072-.173l-.07.154c-.498 1.148-.996 2.29-1.487 3.438-.046.11-.097.128-.214.116-.543-.07-1.086-.135-1.636-.199-.187-.02-.369-.045-.575-.07.05-.116.09-.219.135-.321.88-1.99 1.76-3.978 2.645-5.966a.304.304 0 0 0 .007-.27A932.198 932.198 0 0 1 45.915.241c-.019-.044-.032-.095-.057-.153.05 0 .09-.007.13-.007h2.107c.097 0 .136.033.169.116.445 1.142.892 2.278 1.338 3.42.02.044.039.083.065.153.032-.064.051-.109.07-.154.48-1.135.958-2.27 1.43-3.413.039-.096.084-.128.188-.128h2.276c.005.01.007.02.007.032ZM3.524 6.215v7.582c-.75.103-1.487.2-2.231.302V.088h1.946c.104 0 .143.031.175.121.918 2.54 1.836 5.087 2.755 7.634a.463.463 0 0 0 .077.147V.095H8.46v13.112c-.188.026-.375.064-.57.083-.556.065-1.106.122-1.662.187-.122.012-.181-.014-.22-.135-.795-2.322-1.597-4.645-2.393-6.967-.019-.058-.038-.109-.058-.167-.013.007-.02.007-.032.007Zm12.242 1.16c-.395 0-.776-.006-1.164 0-.556.008-1.106.02-1.662.026-.084 0-.13.013-.13.115v3.08c0 .026.007.051.007.09 1.3-.084 2.587-.16 3.893-.244.007.065.013.115.013.16 0 .604 0 1.207.007 1.804 0 .121-.046.153-.156.16-.815.057-1.636.122-2.45.185-.945.078-1.89.148-2.827.225a18.3 18.3 0 0 1-.666.045V.095h6.092c0 .044.007.089.007.134v1.88c0 .122-.04.147-.156.147-1.196-.006-2.393 0-3.589 0-.175 0-.175 0-.175.167V5.22c.99-.013 1.966-.025 2.95-.045.006.744.006 1.462.006 2.2ZM32.548.095v2.168h-3.99v2.81h3c.008.058.008.097.008.141 0 .629-.008 1.265.005 1.893 0 .128-.045.147-.161.147-.893-.006-1.792 0-2.684 0h-.181v4.966h-2.153V.088c2.056.007 4.1.007 6.156.007ZM18.172 2.262V.093h6.771v2.17H22.66v10.098h-2.2V2.455c0-.192 0-.192-.2-.192h-2.09.001ZM33.965.094h2.179v10.22c1.26.07 2.509.134 3.758.198v2.143c-1.973-.096-3.952-.198-5.937-.295V.093v.001Zm9.972 12.882c-.718-.052-1.43-.11-2.147-.16V.093h2.147v12.883Z"/></g><defs><clipPath id="a"><path fill="#fff" d="M.596 0h53.64v14.37H.596z"/></clipPath></defs></svg>