<svg xmlns="http://www.w3.org/2000/svg" width="65" height="20" fill="none"><g fill="#F6F6F6" clip-path="url(#a)"><path d="M40.242 15.625c-3.714 2.835-9.098 4.348-13.734 4.348-6.5 0-12.352-2.49-16.779-6.63-.348-.325-.036-.769.381-.515 4.778 2.878 10.685 4.61 16.787 4.61 4.116 0 8.643-.882 12.806-2.711.628-.277 1.154.426.54.898Z"/><path d="M41.787 13.796c-.473-.628-3.138-.297-4.335-.15-.364.046-.42-.283-.092-.519 2.123-1.547 5.607-1.1 6.014-.582.406.522-.106 4.137-2.101 5.863-.306.265-.599.124-.462-.228.448-1.158 1.452-3.753.976-4.384Zm-4.252-11.59V.702c0-.228.167-.38.367-.38h6.503c.209 0 .376.155.376.38V1.99c-.003.216-.178.498-.49.945l-3.37 4.98c1.253-.03 2.574.162 3.71.825.256.15.325.369.345.585v1.604c0 .22-.234.476-.479.343-2-1.086-4.658-1.204-6.87.012-.225.127-.462-.127-.462-.346V9.414c0-.245.003-.663.24-1.034l3.903-5.797h-3.397a.366.366 0 0 1-.376-.377Zm-23.721 9.383h-1.978a.38.38 0 0 1-.354-.349V.728c0-.21.17-.378.382-.378h1.845a.378.378 0 0 1 .358.352v1.374h.037C14.585.748 15.489.128 16.708.128c1.238 0 2.012.62 2.568 1.948C19.755.748 20.843.128 22.01.128c.829 0 1.736.355 2.29 1.15.626.884.498 2.17.498 3.296l-.003 6.635c0 .21-.17.38-.381.38h-1.976a.383.383 0 0 1-.356-.38V5.637c0-.444.04-1.55-.055-1.97-.148-.707-.59-.905-1.164-.905-.478 0-.98.331-1.182.861-.203.53-.184 1.418-.184 2.014v5.572c0 .21-.17.38-.381.38H17.14a.381.381 0 0 1-.356-.38l-.003-5.572c0-1.173.187-2.898-1.218-2.898-1.422 0-1.367 1.682-1.367 2.898v5.572c0 .21-.17.38-.38.38ZM50.38.128c2.936 0 4.525 2.61 4.525 5.929 0 3.207-1.756 5.75-4.524 5.75-2.883 0-4.452-2.61-4.452-5.862 0-3.273 1.589-5.817 4.452-5.817Zm.017 2.146c-1.458 0-1.55 2.057-1.55 3.34 0 1.284-.019 4.027 1.534 4.027 1.533 0 1.605-2.213 1.605-3.56 0-.888-.036-1.948-.295-2.79-.222-.731-.665-1.017-1.294-1.017Zm8.315 9.314h-1.97a.383.383 0 0 1-.356-.38L56.383.693a.379.379 0 0 1 .381-.343h1.834c.172.008.314.13.353.294V2.25h.036C59.541.814 60.317.128 61.684.128c.887 0 1.753.331 2.31 1.239.517.841.517 2.256.517 3.273v6.617a.384.384 0 0 1-.382.332h-1.984a.38.38 0 0 1-.35-.332v-5.71c0-1.15.128-2.832-1.238-2.832-.482 0-.924.334-1.144.841-.278.643-.314 1.282-.314 1.991v5.661a.387.387 0 0 1-.387.38Zm-26.36-5.021v-.444c-1.43 0-2.941.317-2.941 2.063 0 .884.442 1.484 1.202 1.484.556 0 1.054-.355 1.369-.93.39-.71.37-1.375.37-2.173Zm1.995 4.993a.402.402 0 0 1-.468.049c-.656-.565-.773-.827-1.135-1.366-1.085 1.147-1.853 1.49-3.26 1.49-1.665 0-2.962-1.064-2.962-3.193 0-1.662.871-2.794 2.11-3.347 1.074-.49 2.573-.577 3.72-.712v-.265c0-.487.036-1.063-.24-1.484-.242-.377-.703-.533-1.11-.533-.754 0-1.427.4-1.591 1.23-.034.185-.164.366-.343.375l-1.92-.213c-.16-.038-.339-.173-.294-.43C27.296.754 29.397.028 31.278.028c.963 0 2.22.265 2.98 1.02.963.93.87 2.172.87 3.523v3.193c0 .959.385 1.38.747 1.898.128.184.155.406-.006.545-.403.348-1.121.996-1.516 1.36l-.006-.006ZM6.416 6.567v-.444c-1.43 0-2.94.317-2.94 2.063 0 .884.442 1.483 1.201 1.483.557 0 1.055-.354 1.37-.93.389-.709.37-1.374.37-2.172Zm1.995 4.992a.402.402 0 0 1-.467.05c-.657-.565-.774-.828-1.135-1.366-1.086 1.146-1.853 1.49-3.261 1.49-1.664 0-2.961-1.064-2.961-3.193 0-1.662.87-2.795 2.11-3.348 1.073-.49 2.573-.576 3.72-.711v-.265c0-.487.036-1.063-.24-1.484-.242-.377-.704-.533-1.11-.533-.754 0-1.428.4-1.592 1.23-.033.185-.164.366-.342.375l-1.92-.213c-.161-.038-.34-.173-.295-.43C1.36.753 3.461.027 5.342.027c.963 0 2.22.265 2.98 1.02.963.93.871 2.172.871 3.523v3.192c0 .96.384 1.38.746 1.899.128.184.156.406-.005.544-.404.349-1.122.997-1.517 1.36l-.006-.006Z"/></g><defs><clipPath id="a"><path fill="#fff" d="M.549 0h64v20h-64z"/></clipPath></defs></svg>