<svg xmlns="http://www.w3.org/2000/svg" width="67" height="20" fill="none"><g clip-path="url(#a)"><path fill="#F90" d="M41.555 15.625c-3.889 2.835-9.526 4.348-14.379 4.348-6.804 0-12.93-2.49-17.565-6.63-.364-.325-.038-.769.4-.515 5 2.878 11.185 4.61 17.573 4.61 4.308 0 9.048-.882 13.406-2.712.658-.276 1.209.427.565.9Z"/><path fill="#F90" d="M43.172 13.796c-.495-.629-3.286-.297-4.538-.15-.382.046-.44-.283-.096-.519 2.222-1.547 5.87-1.1 6.295-.582.425.522-.111 4.137-2.2 5.863-.32.265-.626.124-.483-.228.469-1.158 1.52-3.754 1.022-4.384Z"/><path fill="#221F1F" d="M38.72 2.206V.702c0-.228.175-.38.385-.38h6.808c.218 0 .393.155.393.38V1.99c-.003.216-.187.498-.513.945l-3.527 4.98c1.31-.03 2.694.162 3.883.825.267.15.34.368.36.585v1.604c0 .22-.244.476-.5.343-2.095-1.086-4.877-1.204-7.192.012-.236.126-.484-.127-.484-.346V9.414c0-.245.003-.663.25-1.034l4.087-5.797h-3.556c-.219 0-.394-.153-.394-.377Zm-24.834 9.383h-2.07a.39.39 0 0 1-.37-.349V.728c0-.21.177-.378.398-.378h1.932a.388.388 0 0 1 .376.352v1.374h.037C14.693.748 15.64.128 16.916.128c1.296 0 2.106.62 2.689 1.948.5-1.328 1.64-1.948 2.86-1.948.868 0 1.818.355 2.398 1.15.655.884.52 2.17.52 3.296l-.002 6.635a.39.39 0 0 1-.4.38h-2.067a.391.391 0 0 1-.373-.38V5.637c0-.444.04-1.55-.058-1.97-.155-.707-.618-.905-1.218-.905-.501 0-1.025.33-1.238.861-.213.53-.192 1.417-.192 2.014v5.572a.39.39 0 0 1-.4.38h-2.068a.39.39 0 0 1-.373-.38l-.002-5.572c0-1.173.195-2.898-1.276-2.898-1.489 0-1.43 1.682-1.43 2.898v5.572a.39.39 0 0 1-.4.38ZM52.168.128c3.073 0 4.736 2.61 4.736 5.929 0 3.206-1.838 5.75-4.736 5.75-3.018 0-4.661-2.61-4.661-5.862 0-3.273 1.663-5.817 4.66-5.817Zm.017 2.146c-1.526 0-1.622 2.057-1.622 3.34 0 1.284-.02 4.027 1.605 4.027 1.605 0 1.68-2.213 1.68-3.561 0-.887-.038-1.948-.308-2.789-.233-.732-.697-1.017-1.355-1.017Zm8.705 9.314h-2.063a.391.391 0 0 1-.373-.38L58.451.693a.39.39 0 0 1 .4-.343h1.919c.18.008.33.13.37.294V2.25h.038C61.758.814 62.57.128 64 .128c.93 0 1.836.331 2.418 1.239.542.841.542 2.256.542 3.273v6.617a.397.397 0 0 1-.4.331h-2.076c-.19-.014-.347-.152-.367-.33V5.546c0-1.15.134-2.832-1.296-2.832-.504 0-.968.334-1.198.841-.29.643-.329 1.282-.329 1.991v5.661a.396.396 0 0 1-.405.38ZM33.294 6.567v-.444c-1.497 0-3.079.317-3.079 2.063 0 .884.463 1.484 1.259 1.484.582 0 1.104-.355 1.433-.93.408-.71.387-1.375.387-2.173Zm2.089 4.993a.436.436 0 0 1-.49.049c-.687-.565-.81-.827-1.188-1.366-1.136 1.147-1.94 1.49-3.414 1.49-1.742 0-3.1-1.064-3.1-3.193 0-1.662.912-2.794 2.208-3.347 1.125-.49 2.695-.577 3.895-.712v-.265c0-.487.038-1.063-.25-1.484-.254-.377-.737-.533-1.163-.533-.79 0-1.494.4-1.666 1.23-.035.185-.172.366-.358.375l-2.01-.213c-.17-.038-.356-.173-.309-.43C28.001.754 30.201.028 32.17.028c1.008 0 2.324.265 3.12 1.02 1.007.93.911 2.172.911 3.523v3.193c0 .959.402 1.38.78 1.898.135.184.164.406-.005.545a80.87 80.87 0 0 0-1.587 1.36l-.006-.006ZM6.142 6.566v-.443c-1.498 0-3.08.317-3.08 2.063 0 .884.464 1.483 1.26 1.483.582 0 1.103-.354 1.432-.93.408-.71.388-1.375.388-2.173ZM8.23 11.56a.436.436 0 0 1-.489.05c-.687-.566-.81-.828-1.189-1.367-1.136 1.147-1.94 1.49-3.414 1.49C1.397 11.732.04 10.669.04 8.54c0-1.662.912-2.795 2.208-3.348 1.125-.49 2.695-.576 3.895-.711v-.265c0-.487.038-1.064-.25-1.484-.254-.378-.738-.533-1.163-.533-.79 0-1.494.4-1.666 1.23-.035.184-.172.366-.359.375L.694 3.59C.526 3.553.34 3.418.386 3.161.849.753 3.048.027 5.017.027c1.008 0 2.325.265 3.12 1.02 1.008.93.912 2.172.912 3.523v3.192c0 .96.402 1.38.78 1.899.135.184.164.406-.005.544a87.66 87.66 0 0 0-1.588 1.36l-.006-.006Z"/></g><defs><clipPath id="a"><path fill="#fff" d="M0 0h67v20H0z"/></clipPath></defs></svg>