<svg xmlns="http://www.w3.org/2000/svg" width="36" height="46" fill="none"><path fill="#000" d="M34.387 15.471c-.253.204-4.72 2.823-4.72 8.646 0 6.735 5.684 9.117 5.855 9.176-.026.145-.904 3.263-2.998 6.44-1.867 2.796-3.818 5.587-6.785 5.587s-3.73-1.793-7.156-1.793c-3.338 0-4.524 1.852-7.238 1.852-2.714 0-4.608-2.587-6.785-5.764C2.038 35.885 0 30.089 0 24.589c0-8.823 5.515-13.502 10.943-13.502 2.884 0 5.289 1.97 7.1 1.97 1.723 0 4.41-2.088 7.692-2.088 1.243 0 5.711.118 8.652 4.502Zm-10.21-8.237c1.357-1.675 2.317-3.998 2.317-6.322 0-.322-.026-.649-.083-.912-2.208.086-4.834 1.53-6.418 3.44-1.244 1.47-2.404 3.794-2.404 6.15 0 .353.056.707.082.82.14.028.367.06.594.06 1.98 0 4.472-1.38 5.912-3.236Z"/></svg>