<svg xmlns="http://www.w3.org/2000/svg" width="63" height="20" fill="none"><path fill="#F6F6F6" fill-rule="evenodd" d="M16.201 7.371h-7.05v2.03h5c-.247 2.848-2.688 4.061-4.993 4.061-2.948 0-5.52-2.25-5.52-5.404 0-3.074 2.452-5.44 5.527-5.44 2.372 0 3.77 1.467 3.77 1.467L14.4 2.613S12.52.582 9.09.582c-4.367 0-7.746 3.576-7.746 7.44 0 3.784 3.178 7.476 7.858 7.476 4.115 0 7.127-2.736 7.127-6.781 0-.853-.128-1.346-.128-1.346Zm.986 3.483c0-2.56 2.075-4.755 4.968-4.755 2.379 0 4.958 1.635 4.958 4.81 0 2.771-2.217 4.778-4.924 4.778-2.99 0-5.002-2.236-5.002-4.833Zm7.768.043c0-1.799-1.348-2.915-2.77-2.915-1.6 0-2.829 1.24-2.829 2.9 0 1.698 1.245 2.923 2.821 2.923 1.436 0 2.779-1.148 2.779-2.908Zm3.035-.043c0-2.56 2.074-4.755 4.968-4.755 2.379 0 4.958 1.635 4.958 4.81 0 2.771-2.218 4.778-4.924 4.778-2.99 0-5.002-2.236-5.002-4.833Zm7.768.043c0-1.799-1.35-2.915-2.771-2.915-1.6 0-2.828 1.24-2.828 2.9 0 1.698 1.245 2.923 2.821 2.923 1.436 0 2.778-1.148 2.778-2.908Zm3.035-.008c0-2.533 2.088-4.79 4.743-4.79 1.157 0 2.028.434 2.665 1.1v-.812h2.072v8.615c0 3.384-2.013 4.998-4.654 4.998-2.414 0-3.77-1.442-4.444-2.824l1.899-.77c.264.618 1.02 1.707 2.53 1.707 1.562 0 2.597-.99 2.597-2.644v-.946c-.553.623-1.302 1.165-2.71 1.165-2.278 0-4.698-1.914-4.698-4.8Zm7.575.01c0-1.842-1.337-2.92-2.638-2.92-1.394 0-2.763 1.097-2.763 2.938 0 1.771 1.317 2.887 2.733 2.887 1.334 0 2.668-1.032 2.668-2.905Zm6.108-.013c0-2.853 2.104-4.787 4.61-4.787 1.975 0 3.468 1.279 4.108 2.809l.345.782-6.626 2.668c.396.714 1.034 1.452 2.423 1.452 1.236 0 1.978-.652 2.421-1.32l1.709 1.103c-.766.994-2.05 2.104-4.14 2.104-2.505 0-4.85-1.79-4.85-4.81ZM59 8.966c-.276-.558-.925-1.024-1.828-1.024-1.43 0-2.787 1.43-2.596 2.819L59 8.966Zm-9.404 6.436h2.176V1.272h-2.176v14.13Z" clip-rule="evenodd"/></svg>