<svg xmlns="http://www.w3.org/2000/svg" width="12" height="12" fill="none"><path fill="#fff" fill-rule="evenodd" d="M6.025 11.897C9.32 11.895 12 9.228 12 5.95c0-1.59-.62-3.083-1.748-4.207A5.95 5.95 0 0 0 6.025 0C2.732 0 .051 2.667.05 5.946c0 1.048.275 2.07.798 2.973L0 12l3.167-.827a5.993 5.993 0 0 0 2.856.724h.002Zm2.806-4.72c.104.05.175.083.205.133.037.062.037.36-.087.707-.125.347-.721.664-1.008.706a2.055 2.055 0 0 1-.94-.059 8.603 8.603 0 0 1-.851-.313C4.75 7.75 3.804 6.4 3.625 6.145a1.8 1.8 0 0 0-.026-.037l-.001-.002c-.079-.105-.608-.808-.608-1.535 0-.684.337-1.043.493-1.208l.03-.032a.55.55 0 0 1 .397-.186 5.955 5.955 0 0 1 .32.006c.087 0 .195-.001.302.255l.165.397v.001c.129.311.27.655.296.705.037.074.062.161.012.26l-.02.043a.856.856 0 0 1-.13.205l-.076.092a2.462 2.462 0 0 1-.147.168c-.075.075-.153.155-.066.304.087.148.387.635.83 1.029.478.423.893.602 1.103.693.04.018.074.032.098.044.15.075.237.062.324-.037.087-.099.373-.434.473-.582.1-.149.199-.124.336-.075a24.93 24.93 0 0 1 1.101.523Z" clip-rule="evenodd"/></svg>