<svg xmlns="http://www.w3.org/2000/svg" width="71" height="14" fill="none"><g fill="#F6F6F6" clip-path="url(#a)"><path d="M4.668 9.026c0 .764.168 1.35.387 1.707.287.464.716.662 1.153.662.565 0 1.08-.14 2.074-1.516.798-1.102 1.736-2.65 2.368-3.619l1.07-1.643c.742-1.141 1.602-2.41 2.588-3.27.805-.702 1.673-1.093 2.547-1.093 1.468 0 2.865.85 3.934 2.445 1.171 1.747 1.74 3.946 1.74 6.216 0 1.35-.267 2.342-.72 3.125-.437.758-1.29 1.514-2.722 1.514v-2.16c1.227 0 1.533-1.128 1.533-2.419 0-1.84-.428-3.881-1.373-5.34-.671-1.034-1.54-1.667-2.496-1.667-1.034 0-1.866.78-2.801 2.17-.497.74-1.008 1.64-1.581 2.656l-.63 1.117c-1.268 2.248-1.59 2.76-2.223 3.604-1.11 1.48-2.059 2.04-3.308 2.04-1.48 0-2.417-.642-2.997-1.608-.474-.788-.707-1.821-.707-2.999l2.163.077Z"/><path d="M4.21 2.852C5.202 1.323 6.632.255 8.273.255c.951 0 1.896.28 2.883 1.086 1.08.882 2.23 2.331 3.665 4.722l.514.858c1.243 2.07 1.95 3.135 2.363 3.636.532.645.905.838 1.388.838 1.228 0 1.535-1.129 1.535-2.42l1.907-.06c0 1.35-.266 2.342-.718 3.125-.437.758-1.29 1.514-2.723 1.514-.892 0-1.681-.193-2.555-1.017-.671-.632-1.456-1.756-2.06-2.765l-1.795-3c-.901-1.505-1.728-2.628-2.206-3.135-.515-.548-1.176-1.208-2.232-1.208-.854 0-1.58.6-2.187 1.517L4.21 2.852Z"/><path d="M8.239 2.43c-.854 0-1.58.599-2.187 1.516-.859 1.296-1.384 3.226-1.384 5.08 0 .764.168 1.35.387 1.707L3.21 11.947c-.474-.788-.707-1.821-.707-2.999 0-2.141.588-4.373 1.706-6.096C5.202 1.323 6.632.255 8.274.255l-.035 2.174ZM26.733.675h2.502l4.254 7.695L37.743.676h2.448V13.32H38.15V3.63l-3.731 6.712h-1.915l-3.73-6.712v9.692h-2.041V.676ZM46.586 5.39c-1.463 0-2.345 1.102-2.556 2.466h4.967c-.102-1.405-.913-2.466-2.411-2.466Zm-4.58 3.243c0-2.87 1.855-4.96 4.615-4.96 2.716 0 4.337 2.064 4.337 5.113v.56H44.03c.245 1.485 1.23 2.485 2.817 2.485 1.267 0 2.06-.387 2.81-1.094l1.085 1.328c-1.022.94-2.322 1.482-3.967 1.482-2.987 0-4.769-2.18-4.769-4.915v.001Zm11.426-3.062h-1.878V3.9h1.878V1.136h1.97V3.9h2.854v1.672h-2.855v4.235c0 1.447.462 1.96 1.599 1.96a6.54 6.54 0 0 0 1.255-.117v1.654a5.867 5.867 0 0 1-1.635.225c-2.126 0-3.188-1.162-3.188-3.486V5.571Zm13.116 1.626c-.396-1-1.278-1.734-2.574-1.734-1.686 0-2.764 1.195-2.764 3.143 0 1.899.993 3.152 2.682 3.152 1.33 0 2.278-.773 2.656-1.735V7.197Zm1.969 6.123h-1.933v-1.318c-.54.777-1.524 1.544-3.116 1.544-2.562 0-4.273-2.144-4.273-4.94 0-2.823 1.753-4.932 4.382-4.932 1.299 0 2.318.52 3.007 1.436V3.9h1.933v9.421Z"/></g><defs><clipPath id="a"><path fill="#fff" d="M.549 0h70v14h-70z"/></clipPath></defs></svg>