<svg xmlns="http://www.w3.org/2000/svg" width="13" height="12" fill="none"><g clip-path="url(#a)"><path fill="#fff" d="M10.556 7.026c-.137-1.79-.97-2.911-1.705-3.901C8.17 2.209 7.582 1.418 7.582.25a.25.25 0 0 0-.395-.203C6.083.837 5.16 2.17 4.84 3.44c-.224.884-.253 1.879-.257 2.535-1.02-.217-1.251-1.742-1.253-1.759a.251.251 0 0 0-.357-.19c-.054.026-1.312.666-1.386 3.22-.005.085-.005.17-.005.255 0 2.481 2.019 4.5 4.5 4.5h.013a4.505 4.505 0 0 0 4.487-4.5c0-.125-.026-.474-.026-.474ZM6.082 11.5c-.827 0-1.5-.717-1.5-1.598 0-.03 0-.06.002-.098.01-.371.08-.625.158-.793.145.311.404.597.825.597a.25.25 0 0 0 .25-.25c0-.355.008-.766.096-1.137.08-.328.268-.678.506-.958.107.364.314.658.516.945.29.411.588.837.64 1.561.004.043.007.086.007.133 0 .88-.673 1.598-1.5 1.598Z"/></g><defs><clipPath id="a"><path fill="#fff" d="M.082 0h12v12h-12z"/></clipPath></defs></svg>